<svg xmlns="http://www.w3.org/2000/svg" xmlns:xlink="http://www.w3.org/1999/xlink" contentStyleType="text/css" height="725px" preserveAspectRatio="none" style="width:330px;height:725px;background:#FFFFFF;" version="1.1" viewBox="0 0 330 725" width="330px" zoomAndPan="magnify"><defs/><g><!--cluster Online Bookstore--><g id="cluster_Online Bookstore"><rect fill="none" height="712" rx="2.5" ry="2.5" style="stroke:#181818;stroke-width:1.0;" width="206.39" x="118" y="7"/><text fill="#000000" font-family="sans-serif" font-size="14" font-weight="bold" lengthAdjust="spacing" textLength="136.0625" x="153.1638" y="21.9951">Online Bookstore</text></g><g id="elem_Browse Books"><ellipse cx="221.2004" cy="199.9961" fill="#F1F1F1" rx="71.8804" ry="16.7761" style="stroke:#181818;stroke-width:0.5;"/><text fill="#000000" font-family="sans-serif" font-size="14" lengthAdjust="spacing" textLength="97.8701" x="169.2653" y="203.7436">Browse Books</text></g><g id="elem_Search Books"><ellipse cx="221.202" cy="132.0004" fill="#F1F1F1" rx="70.802" ry="16.5604" style="stroke:#181818;stroke-width:0.5;"/><text fill="#000000" font-family="sans-serif" font-size="14" lengthAdjust="spacing" textLength="94.9922" x="170.7059" y="135.748">Search Books</text></g><g id="elem_View Book Details"><ellipse cx="221.1962" cy="61.0012" fill="#F1F1F1" rx="83.0562" ry="19.0112" style="stroke:#181818;stroke-width:0.5;"/><text fill="#000000" font-family="sans-serif" font-size="14" lengthAdjust="spacing" textLength="125.8086" x="157.7179" y="64.0421">View Book Details</text></g><g id="elem_Add to Cart"><ellipse cx="221.1974" cy="331.9975" fill="#F1F1F1" rx="65.3874" ry="15.4775" style="stroke:#181818;stroke-width:0.5;"/><text fill="#000000" font-family="sans-serif" font-size="14" lengthAdjust="spacing" textLength="79.9053" x="178.2447" y="335.745">Add to Cart</text></g><g id="elem_Checkout"><ellipse cx="221.1953" cy="266.9971" fill="#F1F1F1" rx="59.3153" ry="14.7671" style="stroke:#181818;stroke-width:0.5;"/><text fill="#000000" font-family="sans-serif" font-size="14" lengthAdjust="spacing" textLength="65.9941" x="185.1983" y="270.7446">Checkout</text></g><g id="elem_Register"><ellipse cx="221.1984" cy="397.0032" fill="#F1F1F1" rx="53.5484" ry="14.7232" style="stroke:#181818;stroke-width:0.5;"/><text fill="#000000" font-family="sans-serif" font-size="14" lengthAdjust="spacing" textLength="58.2695" x="189.0636" y="400.7507">Register</text></g><g id="elem_Manage Inventory"><ellipse cx="221.1954" cy="683.9971" fill="#F1F1F1" rx="83.5354" ry="19.1071" style="stroke:#181818;stroke-width:0.5;"/><text fill="#000000" font-family="sans-serif" font-size="14" lengthAdjust="spacing" textLength="126.9297" x="157.3173" y="686.9847">Manage Inventory</text></g><g id="elem_Manage Orders"><ellipse cx="221.1951" cy="611.997" fill="#F1F1F1" rx="75.5351" ry="17.507" style="stroke:#181818;stroke-width:0.5;"/><text fill="#000000" font-family="sans-serif" font-size="14" lengthAdjust="spacing" textLength="107.3857" x="164.5022" y="615.7446">Manage Orders</text></g><g id="elem_Manage Customers"><ellipse cx="221.2035" cy="539.9987" fill="#F1F1F1" rx="87.1935" ry="19.8387" style="stroke:#181818;stroke-width:0.5;"/><text fill="#000000" font-family="sans-serif" font-size="14" lengthAdjust="spacing" textLength="135.3584" x="153.5243" y="542.8454">Manage Customers</text></g><g id="elem_Generate Reports"><ellipse cx="221.1991" cy="466.0018" fill="#F1F1F1" rx="82.3591" ry="18.8718" style="stroke:#181818;stroke-width:0.5;"/><text fill="#000000" font-family="sans-serif" font-size="14" lengthAdjust="spacing" textLength="124.168" x="158.3023" y="469.1201">Generate Reports</text></g><!--entity Customer--><g id="elem_Customer"><ellipse cx="40.002" cy="126.35" fill="#F1F1F1" rx="8" ry="8" style="stroke:#181818;stroke-width:0.5;"/><path d="M40.002,134.35 L40.002,161.35 M27.002,142.35 L53.002,142.35 M40.002,161.35 L27.002,176.35 M40.002,161.35 L53.002,176.35 " fill="none" style="stroke:#181818;stroke-width:0.5;"/><text fill="#000000" font-family="sans-serif" font-size="14" lengthAdjust="spacing" textLength="68.0039" x="6" y="190.8451">Customer</text></g><!--entity Guest--><g id="elem_Guest"><ellipse cx="39.9991" cy="237.35" fill="#F1F1F1" rx="8" ry="8" style="stroke:#181818;stroke-width:0.5;"/><path d="M39.9991,245.35 L39.9991,272.35 M26.9991,253.35 L52.9991,253.35 M39.9991,272.35 L26.9991,287.35 M39.9991,272.35 L52.9991,287.35 " fill="none" style="stroke:#181818;stroke-width:0.5;"/><text fill="#000000" font-family="sans-serif" font-size="14" lengthAdjust="spacing" textLength="41.1182" x="19.44" y="301.8451">Guest</text></g><!--entity Admin--><g id="elem_Admin"><ellipse cx="40.0021" cy="546.35" fill="#F1F1F1" rx="8" ry="8" style="stroke:#181818;stroke-width:0.5;"/><path d="M40.0021,554.35 L40.0021,581.35 M27.0021,562.35 L53.0021,562.35 M40.0021,581.35 L27.0021,596.35 M40.0021,581.35 L53.0021,596.35 " fill="none" style="stroke:#181818;stroke-width:0.5;"/><text fill="#000000" font-family="sans-serif" font-size="14" lengthAdjust="spacing" textLength="44.8643" x="17.57" y="610.8451">Admin</text></g><!--link Customer to Browse Books--><g id="link_Customer_Browse Books"><path d="M74.29,164.17 C101.31,170.81 139.83,180.27 170.51,187.8 " fill="none" id="Customer-Browse Books" style="stroke:#181818;stroke-width:1.0;"/></g><!--link Customer to Search Books--><g id="link_Customer_Search Books"><path d="M74.29,151.54 C97.97,148.37 130.48,144.02 158.81,140.22 " fill="none" id="Customer-Search Books" style="stroke:#181818;stroke-width:1.0;"/></g><!--link Customer to View Book Details--><g id="link_Customer_View Book Details"><path d="M74.22,123.76 C85.01,114.52 97.45,105.05 110,98 C126.81,88.57 146.41,81.02 164.39,75.27 " fill="none" id="Customer-View Book Details" style="stroke:#181818;stroke-width:1.0;"/></g><!--link Customer to Add to Cart--><g id="link_Customer_Add to Cart"><path d="M65.19,194.65 C68.29,200.07 71.31,205.62 74,211 C92.93,248.78 78.71,270.61 110,299 C124.5,312.15 144.05,320.07 162.65,324.83 " fill="none" id="Customer-Add to Cart" style="stroke:#181818;stroke-width:1.0;"/></g><!--link Customer to Checkout--><g id="link_Customer_Checkout"><path d="M67.68,194.32 C79.25,208.53 93.86,223.68 110,234 C128.51,245.83 151.46,253.59 171.62,258.59 " fill="none" id="Customer-Checkout" style="stroke:#181818;stroke-width:1.0;"/></g><!--link Guest to Browse Books--><g id="link_Guest_Browse Books"><path d="M60.94,256.94 C74.57,250.26 93.14,241.56 110,235 C130.86,226.89 154.46,219.2 174.44,213.11 " fill="none" id="Guest-Browse Books" style="stroke:#181818;stroke-width:1.0;"/></g><!--link Guest to Search Books--><g id="link_Guest_Search Books"><path d="M61.05,232.7 C76.55,207.19 97.44,175.26 110,166 C125.55,154.53 145.04,146.88 163.28,141.8 " fill="none" id="Guest-Search Books" style="stroke:#181818;stroke-width:1.0;"/></g><!--link Guest to View Book Details--><g id="link_Guest_View Book Details"><path d="M60.99,236.56 C65.64,228.75 70.3,220.22 74,212 C95.82,163.55 72.77,135.91 110,98 C121.81,85.98 137.64,77.86 153.61,72.38 " fill="none" id="Guest-View Book Details" style="stroke:#181818;stroke-width:1.0;"/></g><!--link Guest to Register--><g id="link_Guest_Register"><path d="M59.8,305.36 C71.62,325.79 88.66,349.77 110,365 C128.33,378.08 151.94,385.85 172.61,390.44 " fill="none" id="Guest-Register" style="stroke:#181818;stroke-width:1.0;"/></g><!--link Guest to Add to Cart--><g id="link_Guest_Add to Cart"><path d="M60.91,277.16 C74.52,283.87 93.09,292.58 110,299 C131.48,307.15 155.89,314.63 176.28,320.41 " fill="none" id="Guest-Add to Cart" style="stroke:#181818;stroke-width:1.0;"/></g><!--link Guest to Checkout--><g id="link_Guest_Checkout"><path d="M60.86,267 C85.01,267 126.85,267 161.59,267 " fill="none" id="Guest-Checkout" style="stroke:#181818;stroke-width:1.0;"/></g><!--link Admin to Manage Inventory--><g id="link_Admin_Manage Inventory"><path d="M62.73,604.11 C75.21,618.63 91.97,635.65 110,647 C125.8,656.94 144.57,664.53 162.1,670.17 " fill="none" id="Admin-Manage Inventory" style="stroke:#181818;stroke-width:1.0;"/></g><!--link Admin to Manage Orders--><g id="link_Admin_Manage Orders"><path d="M62.62,580.34 C87.38,585.32 128.94,593.67 163.17,600.54 " fill="none" id="Admin-Manage Orders" style="stroke:#181818;stroke-width:1.0;"/></g><!--link Admin to Manage Customers--><g id="link_Admin_Manage Customers"><path d="M62.62,571.66 C85.33,567.09 122.18,559.69 154.54,553.19 " fill="none" id="Admin-Manage Customers" style="stroke:#181818;stroke-width:1.0;"/></g><!--link Admin to Generate Reports--><g id="link_Admin_Generate Reports"><path d="M62.89,546.72 C75.3,531.86 91.93,514.55 110,503 C125.82,492.89 144.68,485.25 162.3,479.61 " fill="none" id="Admin-Generate Reports" style="stroke:#181818;stroke-width:1.0;"/></g><!--SRC=[TT31QiCm30RWkvz2-BGU-X1j1cM7KUXWTnF_IqnJQyZAoXXxzpbkiq2J-6Jh4_PlTVXGKYO9JQlaWw3MmD4OLoiBLNrIla389RBZmTxnq2DfaR8Ropj_2R6KoyuQCrpgOjE1x35s8OBspETycS3IZw6y_X_QRkbfBtnDzwRDdD_Wf6vN-JtWMf2UeIvqIpqxxuTVLqvqGQiMzPdxJCLk_rmEDjayrMGhaQQ64vgG5F9Od-MSw27aRUe3lBhe6j1B_4BC8_xUBFjHF2Iju3YEcHyG8Kv19tooQFRVFm00]--></g></svg>