<svg xmlns="http://www.w3.org/2000/svg" xmlns:xlink="http://www.w3.org/1999/xlink" contentStyleType="text/css" height="800px" preserveAspectRatio="none" style="width:613px;height:800px;background:#FFFFFF;" version="1.1" viewBox="0 0 613 800" width="613px" zoomAndPan="magnify"><defs/><g><text fill="#000000" font-family="sans-serif" font-size="14" font-weight="bold" lengthAdjust="spacing" textLength="244.8838" x="177.0767" y="22.9951">Online Bookstore Object Model</text><!--class Book--><g id="elem_Book"><rect codeLine="6" fill="#F1F1F1" height="145.7813" id="Book" rx="2.5" ry="2.5" style="stroke:#181818;stroke-width:0.5;" width="183.1787" x="258.49" y="473.5669"/><ellipse cx="328.408" cy="489.5669" fill="#ADD1B2" rx="11" ry="11" style="stroke:#181818;stroke-width:1.0;"/><path d="M331.3767,495.2075 Q330.7986,495.5044 330.158,495.645 Q329.5173,495.8013 328.8142,495.8013 Q326.3142,495.8013 324.9861,494.1606 Q323.6736,492.5044 323.6736,489.3794 Q323.6736,486.2544 324.9861,484.5981 Q326.3142,482.9419 328.8142,482.9419 Q329.5173,482.9419 330.158,483.0981 Q330.8142,483.2544 331.3767,483.5513 L331.3767,486.27 Q330.7517,485.6919 330.158,485.4263 Q329.5642,485.145 328.9392,485.145 Q327.5955,485.145 326.908,486.2231 Q326.2205,487.2856 326.2205,489.3794 Q326.2205,491.4731 326.908,492.5513 Q327.5955,493.6138 328.9392,493.6138 Q329.5642,493.6138 330.158,493.3481 Q330.7517,493.0669 331.3767,492.4888 L331.3767,495.2075 Z " fill="#000000"/><text fill="#000000" font-family="sans-serif" font-size="14" lengthAdjust="spacing" textLength="34.8428" x="348.908" y="494.4136">Book</text><line style="stroke:#181818;stroke-width:0.5;" x1="259.49" x2="440.6687" y1="505.5669" y2="505.5669"/><rect fill="none" height="6" style="stroke:#C82930;stroke-width:1.0;" width="6" x="266.49" y="516.2153"/><text fill="#000000" font-family="sans-serif" font-size="14" lengthAdjust="spacing" textLength="78.3193" x="278.49" y="522.562">title: String</text><rect fill="none" height="6" style="stroke:#C82930;stroke-width:1.0;" width="6" x="266.49" y="532.5122"/><text fill="#000000" font-family="sans-serif" font-size="14" lengthAdjust="spacing" textLength="97.084" x="278.49" y="538.8589">author: String</text><rect fill="none" height="6" style="stroke:#C82930;stroke-width:1.0;" width="6" x="266.49" y="548.8091"/><text fill="#000000" font-family="sans-serif" font-size="14" lengthAdjust="spacing" textLength="84.041" x="278.49" y="555.1557">ISBN: String</text><rect fill="none" height="6" style="stroke:#C82930;stroke-width:1.0;" width="6" x="266.49" y="565.1059"/><text fill="#000000" font-family="sans-serif" font-size="14" lengthAdjust="spacing" textLength="101.0967" x="278.49" y="571.4526">price: Decimal</text><rect fill="none" height="6" style="stroke:#C82930;stroke-width:1.0;" width="6" x="266.49" y="581.4028"/><text fill="#000000" font-family="sans-serif" font-size="14" lengthAdjust="spacing" textLength="157.1787" x="278.49" y="587.7495">stockQuantity: Integer</text><line style="stroke:#181818;stroke-width:0.5;" x1="259.49" x2="440.6687" y1="595.0513" y2="595.0513"/><ellipse cx="269.49" cy="608.6997" fill="#84BE84" rx="3" ry="3" style="stroke:#038048;stroke-width:1.0;"/><text fill="#000000" font-family="sans-serif" font-size="14" lengthAdjust="spacing" textLength="133.3965" x="278.49" y="612.0464">getDetails(): String</text></g><!--class User--><g id="elem_User"><rect codeLine="15" fill="#F1F1F1" height="145.7813" id="User" rx="2.5" ry="2.5" style="stroke:#181818;stroke-width:0.5;" width="587.9072" x="18.13" y="44.2969"/><ellipse cx="291.8785" cy="60.2969" fill="#ADD1B2" rx="11" ry="11" style="stroke:#181818;stroke-width:1.0;"/><path d="M294.8473,65.9375 Q294.2692,66.2344 293.6285,66.375 Q292.9879,66.5313 292.2848,66.5313 Q289.7848,66.5313 288.4567,64.8906 Q287.1442,63.2344 287.1442,60.1094 Q287.1442,56.9844 288.4567,55.3281 Q289.7848,53.6719 292.2848,53.6719 Q292.9879,53.6719 293.6285,53.8281 Q294.2848,53.9844 294.8473,54.2813 L294.8473,57 Q294.2223,56.4219 293.6285,56.1563 Q293.0348,55.875 292.4098,55.875 Q291.066,55.875 290.3785,56.9531 Q289.691,58.0156 289.691,60.1094 Q289.691,62.2031 290.3785,63.2813 Q291.066,64.3438 292.4098,64.3438 Q293.0348,64.3438 293.6285,64.0781 Q294.2223,63.7969 294.8473,63.2188 L294.8473,65.9375 Z " fill="#000000"/><text fill="#000000" font-family="sans-serif" font-size="14" lengthAdjust="spacing" textLength="31.9102" x="312.3785" y="65.1436">User</text><line style="stroke:#181818;stroke-width:0.5;" x1="19.13" x2="605.0372" y1="76.2969" y2="76.2969"/><rect fill="none" height="6" style="stroke:#C82930;stroke-width:1.0;" width="6" x="26.13" y="86.9453"/><text fill="#000000" font-family="sans-serif" font-size="14" lengthAdjust="spacing" textLength="90.6514" x="38.13" y="93.292">name: String</text><rect fill="none" height="6" style="stroke:#C82930;stroke-width:1.0;" width="6" x="26.13" y="103.2422"/><text fill="#000000" font-family="sans-serif" font-size="14" lengthAdjust="spacing" textLength="89.5576" x="38.13" y="109.5889">email: String</text><rect fill="none" height="6" style="stroke:#C82930;stroke-width:1.0;" width="6" x="26.13" y="119.5391"/><text fill="#000000" font-family="sans-serif" font-size="14" lengthAdjust="spacing" textLength="117.6602" x="38.13" y="125.8857">password: String</text><rect fill="none" height="6" style="stroke:#C82930;stroke-width:1.0;" width="6" x="26.13" y="135.8359"/><text fill="#000000" font-family="sans-serif" font-size="14" lengthAdjust="spacing" textLength="106.2578" x="38.13" y="142.1826">address: String</text><line style="stroke:#181818;stroke-width:0.5;" x1="19.13" x2="605.0372" y1="149.4844" y2="149.4844"/><ellipse cx="29.13" cy="163.1328" fill="#84BE84" rx="3" ry="3" style="stroke:#038048;stroke-width:1.0;"/><text fill="#000000" font-family="sans-serif" font-size="14" lengthAdjust="spacing" textLength="327.0039" x="38.13" y="166.4795">login(email: String, password: String): Boolean</text><ellipse cx="29.13" cy="179.4297" fill="#84BE84" rx="3" ry="3" style="stroke:#038048;stroke-width:1.0;"/><text fill="#000000" font-family="sans-serif" font-size="14" lengthAdjust="spacing" textLength="561.9072" x="38.13" y="182.7764">register(name: String, email: String, password: String, address: String): Boolean</text></g><!--class ShoppingCart--><g id="elem_ShoppingCart"><rect codeLine="24" fill="#F1F1F1" height="129.4844" id="ShoppingCart" rx="2.5" ry="2.5" style="stroke:#181818;stroke-width:0.5;" width="239.1924" x="230.48" y="267.0769"/><ellipse cx="298.1524" cy="283.0769" fill="#ADD1B2" rx="11" ry="11" style="stroke:#181818;stroke-width:1.0;"/><path d="M301.1211,288.7175 Q300.543,289.0144 299.9024,289.155 Q299.2617,289.3113 298.5586,289.3113 Q296.0586,289.3113 294.7305,287.6706 Q293.418,286.0144 293.418,282.8894 Q293.418,279.7644 294.7305,278.1081 Q296.0586,276.4519 298.5586,276.4519 Q299.2617,276.4519 299.9024,276.6081 Q300.5586,276.7644 301.1211,277.0613 L301.1211,279.78 Q300.4961,279.2019 299.9024,278.9363 Q299.3086,278.655 298.6836,278.655 Q297.3399,278.655 296.6524,279.7331 Q295.9649,280.7956 295.9649,282.8894 Q295.9649,284.9831 296.6524,286.0613 Q297.3399,287.1238 298.6836,287.1238 Q299.3086,287.1238 299.9024,286.8581 Q300.4961,286.5769 301.1211,285.9988 L301.1211,288.7175 Z " fill="#000000"/><text fill="#000000" font-family="sans-serif" font-size="14" lengthAdjust="spacing" textLength="95.3477" x="318.6524" y="287.9236">ShoppingCart</text><line style="stroke:#181818;stroke-width:0.5;" x1="231.48" x2="468.6724" y1="299.0769" y2="299.0769"/><rect fill="none" height="6" style="stroke:#C82930;stroke-width:1.0;" width="6" x="238.48" y="309.7253"/><text fill="#000000" font-family="sans-serif" font-size="14" lengthAdjust="spacing" textLength="130.8672" x="250.48" y="316.072">items: List&lt;Book&gt;</text><rect fill="none" height="6" style="stroke:#C82930;stroke-width:1.0;" width="6" x="238.48" y="326.0222"/><text fill="#000000" font-family="sans-serif" font-size="14" lengthAdjust="spacing" textLength="132.665" x="250.48" y="332.3689">totalPrice: Decimal</text><line style="stroke:#181818;stroke-width:0.5;" x1="231.48" x2="468.6724" y1="339.6706" y2="339.6706"/><ellipse cx="241.48" cy="353.3191" fill="#84BE84" rx="3" ry="3" style="stroke:#038048;stroke-width:1.0;"/><text fill="#000000" font-family="sans-serif" font-size="14" lengthAdjust="spacing" textLength="186.0742" x="250.48" y="356.6657">addItem(book: Book): void</text><ellipse cx="241.48" cy="369.6159" fill="#84BE84" rx="3" ry="3" style="stroke:#038048;stroke-width:1.0;"/><text fill="#000000" font-family="sans-serif" font-size="14" lengthAdjust="spacing" textLength="213.1924" x="250.48" y="372.9626">removeItem(book: Book): void</text><ellipse cx="241.48" cy="385.9128" fill="#84BE84" rx="3" ry="3" style="stroke:#038048;stroke-width:1.0;"/><text fill="#000000" font-family="sans-serif" font-size="14" lengthAdjust="spacing" textLength="175.5605" x="250.48" y="389.2595">calculateTotal(): Decimal</text></g><!--class Order--><g id="elem_Order"><rect codeLine="32" fill="#F1F1F1" height="129.4844" id="Order" rx="2.5" ry="2.5" style="stroke:#181818;stroke-width:0.5;" width="188.1621" x="7" y="267.0769"/><ellipse cx="76.8154" cy="283.0769" fill="#ADD1B2" rx="11" ry="11" style="stroke:#181818;stroke-width:1.0;"/><path d="M79.7842,288.7175 Q79.2061,289.0144 78.5654,289.155 Q77.9248,289.3113 77.2217,289.3113 Q74.7217,289.3113 73.3936,287.6706 Q72.0811,286.0144 72.0811,282.8894 Q72.0811,279.7644 73.3936,278.1081 Q74.7217,276.4519 77.2217,276.4519 Q77.9248,276.4519 78.5654,276.6081 Q79.2217,276.7644 79.7842,277.0613 L79.7842,279.78 Q79.1592,279.2019 78.5654,278.9363 Q77.9717,278.655 77.3467,278.655 Q76.0029,278.655 75.3154,279.7331 Q74.6279,280.7956 74.6279,282.8894 Q74.6279,284.9831 75.3154,286.0613 Q76.0029,287.1238 77.3467,287.1238 Q77.9717,287.1238 78.5654,286.8581 Q79.1592,286.5769 79.7842,285.9988 L79.7842,288.7175 Z " fill="#000000"/><text fill="#000000" font-family="sans-serif" font-size="14" lengthAdjust="spacing" textLength="40.0313" x="97.3154" y="287.9236">Order</text><line style="stroke:#181818;stroke-width:0.5;" x1="8" x2="194.1621" y1="299.0769" y2="299.0769"/><rect fill="none" height="6" style="stroke:#C82930;stroke-width:1.0;" width="6" x="15" y="309.7253"/><text fill="#000000" font-family="sans-serif" font-size="14" lengthAdjust="spacing" textLength="103.4346" x="27" y="316.072">orderID: String</text><rect fill="none" height="6" style="stroke:#C82930;stroke-width:1.0;" width="6" x="15" y="326.0222"/><text fill="#000000" font-family="sans-serif" font-size="14" lengthAdjust="spacing" textLength="113.668" x="27" y="332.3689">orderDate: Date</text><rect fill="none" height="6" style="stroke:#C82930;stroke-width:1.0;" width="6" x="15" y="342.3191"/><text fill="#000000" font-family="sans-serif" font-size="14" lengthAdjust="spacing" textLength="133.1367" x="27" y="348.6657">orderStatus: String</text><line style="stroke:#181818;stroke-width:0.5;" x1="8" x2="194.1621" y1="355.9675" y2="355.9675"/><ellipse cx="18" cy="369.6159" fill="#84BE84" rx="3" ry="3" style="stroke:#038048;stroke-width:1.0;"/><text fill="#000000" font-family="sans-serif" font-size="14" lengthAdjust="spacing" textLength="154.4785" x="27" y="372.9626">placeOrder(): Boolean</text><ellipse cx="18" cy="385.9128" fill="#84BE84" rx="3" ry="3" style="stroke:#038048;stroke-width:1.0;"/><text fill="#000000" font-family="sans-serif" font-size="14" lengthAdjust="spacing" textLength="162.1621" x="27" y="389.2595">cancelOrder(): Boolean</text></g><!--class Review--><g id="elem_Review"><rect codeLine="40" fill="#F1F1F1" height="96.8906" id="Review" rx="2.5" ry="2.5" style="stroke:#181818;stroke-width:0.5;" width="161.4951" x="355.33" y="696.3469"/><ellipse cx="406.538" cy="712.3469" fill="#ADD1B2" rx="11" ry="11" style="stroke:#181818;stroke-width:1.0;"/><path d="M409.5068,717.9875 Q408.9286,718.2844 408.288,718.425 Q407.6474,718.5813 406.9443,718.5813 Q404.4443,718.5813 403.1161,716.9406 Q401.8036,715.2844 401.8036,712.1594 Q401.8036,709.0344 403.1161,707.3781 Q404.4443,705.7219 406.9443,705.7219 Q407.6474,705.7219 408.288,705.8781 Q408.9443,706.0344 409.5068,706.3313 L409.5068,709.05 Q408.8818,708.4719 408.288,708.2063 Q407.6943,707.925 407.0693,707.925 Q405.7255,707.925 405.038,709.0031 Q404.3505,710.0656 404.3505,712.1594 Q404.3505,714.2531 405.038,715.3313 Q405.7255,716.3938 407.0693,716.3938 Q407.6943,716.3938 408.288,716.1281 Q408.8818,715.8469 409.5068,715.2688 L409.5068,717.9875 Z " fill="#000000"/><text fill="#000000" font-family="sans-serif" font-size="14" lengthAdjust="spacing" textLength="50.5791" x="427.038" y="717.1936">Review</text><line style="stroke:#181818;stroke-width:0.5;" x1="356.33" x2="515.8251" y1="728.3469" y2="728.3469"/><rect fill="none" height="6" style="stroke:#C82930;stroke-width:1.0;" width="6" x="363.33" y="738.9953"/><text fill="#000000" font-family="sans-serif" font-size="14" lengthAdjust="spacing" textLength="101.001" x="375.33" y="745.342">rating: Integer</text><rect fill="none" height="6" style="stroke:#C82930;stroke-width:1.0;" width="6" x="363.33" y="755.2922"/><text fill="#000000" font-family="sans-serif" font-size="14" lengthAdjust="spacing" textLength="117.4619" x="375.33" y="761.6389">comment: String</text><line style="stroke:#181818;stroke-width:0.5;" x1="356.33" x2="515.8251" y1="768.9406" y2="768.9406"/><ellipse cx="366.33" cy="782.5891" fill="#84BE84" rx="3" ry="3" style="stroke:#038048;stroke-width:1.0;"/><text fill="#000000" font-family="sans-serif" font-size="14" lengthAdjust="spacing" textLength="135.4951" x="375.33" y="785.9357">writeReview(): void</text></g><!--link User to Order--><g id="link_User_Order"><path codeLine="46" d="M240.35,190.4769 C215.74,215.2769 188.39,242.8369 164.49,266.9269 " fill="none" id="User-Order" style="stroke:#181818;stroke-width:1.0;"/><text fill="#000000" font-family="sans-serif" font-size="13" lengthAdjust="spacing" textLength="41.7485" x="208.08" y="233.1438">places</text><text fill="#000000" font-family="sans-serif" font-size="13" lengthAdjust="spacing" textLength="8.271" x="225.1446" y="210.2503">1</text><text fill="#000000" font-family="sans-serif" font-size="13" lengthAdjust="spacing" textLength="23.0356" x="147.1695" y="256.0831">0..*</text></g><!--link User to Review--><g id="link_User_Review"><path codeLine="47" d="M426.15,190.2769 C450.75,211.7569 473.44,237.5669 487.08,267.0769 C554.04,411.9569 492.08,607.2569 456.76,696.1569 " fill="none" id="User-Review" style="stroke:#181818;stroke-width:1.0;"/><text fill="#000000" font-family="sans-serif" font-size="13" lengthAdjust="spacing" textLength="39.457" x="517.08" y="439.6338">writes</text><text fill="#000000" font-family="sans-serif" font-size="13" lengthAdjust="spacing" textLength="8.271" x="428.6536" y="210.0313">1</text><text fill="#000000" font-family="sans-serif" font-size="13" lengthAdjust="spacing" textLength="23.0356" x="435.0538" y="685.3391">0..*</text></g><!--link Order to Book--><g id="link_Order_Book"><path codeLine="48" d="M176.13,396.9069 C204.34,420.9969 236.59,448.5369 265.6,473.3169 " fill="none" id="Order-Book" style="stroke:#181818;stroke-width:1.0;"/><text fill="#000000" font-family="sans-serif" font-size="13" lengthAdjust="spacing" textLength="55.0278" x="227.08" y="439.6338">contains</text><text fill="#000000" font-family="sans-serif" font-size="13" lengthAdjust="spacing" textLength="8.271" x="175.4709" y="416.4662">1</text><text fill="#000000" font-family="sans-serif" font-size="13" lengthAdjust="spacing" textLength="23.0356" x="233.1538" y="462.4522">0..*</text></g><!--link ShoppingCart to Book--><g id="link_ShoppingCart_Book"><path codeLine="49" d="M350.08,396.9069 C350.08,420.9969 350.08,448.5369 350.08,473.3169 " fill="none" id="ShoppingCart-Book" style="stroke:#181818;stroke-width:1.0;"/><text fill="#000000" font-family="sans-serif" font-size="13" lengthAdjust="spacing" textLength="55.0278" x="351.08" y="439.6338">contains</text><text fill="#000000" font-family="sans-serif" font-size="13" lengthAdjust="spacing" textLength="8.271" x="341.6819" y="416.4662">1</text><text fill="#000000" font-family="sans-serif" font-size="13" lengthAdjust="spacing" textLength="23.0356" x="325.9498" y="462.4522">0..*</text></g><!--link Book to Review--><g id="link_Book_Review"><path codeLine="50" d="M381.74,619.7269 C392.9,645.2069 405.15,673.1869 415.2,696.1169 " fill="none" id="Book-Review" style="stroke:#181818;stroke-width:1.0;"/><text fill="#000000" font-family="sans-serif" font-size="13" lengthAdjust="spacing" textLength="22.9785" x="401.08" y="662.4138">has</text><text fill="#000000" font-family="sans-serif" font-size="13" lengthAdjust="spacing" textLength="8.271" x="376.3893" y="639.4984">1</text><text fill="#000000" font-family="sans-serif" font-size="13" lengthAdjust="spacing" textLength="23.0356" x="387.6494" y="685.2935">0..*</text></g><!--SRC=[XLFRRjim37ttLx1vyfQas5wDOS3Q18M1zBAw-m1MvXmjiXH8T89XsB-FbjtMIhVknR2FU2uavREQlcjBSB- -VFXoSxLPWp8OGdOsuklDfhohrj05KXWeorYp8RYrfZ-zS6uNs7a17d-GOhXsDPaiUr7hA-1N1h24o2oWOgzj4n7iUEjy0fNLnKq2xBrMmbgHqYsQ28cZsdtjq8hYpm9AozIGbwCvDCGhOjGcvE-UPNvF0tqBvCT05jiq3xN2JDrb5aVdwpHsNNiAOOBDmRX6spmHMBnYIoIPXo6qaUEfqO79vzCW2_YFoEBKVwAQT5fjtNulvvVeUUnOCxN2suZjftupduV5E4PpTphdUUzJ2Y5_bCheiHEhWzFrcBvr1tgZGA5HdK6cXrw_tyUJU1BprjVF6t7zUxbAfXsnbSW8NvulMCN8NRg5lK55KJ0_cRL2gyYyEagItDD1qt6Cuf55TNgxbg1SsvBbnFBePQW3Ct_gNbJZDPjzdC5o2RCFv-VlPsEZnH0o_ArY350CeY4R66bD_A4AYMBbcjkG9Lj-kpH-_yDnY-4F]--></g></svg>