<svg xmlns="http://www.w3.org/2000/svg" xmlns:xlink="http://www.w3.org/1999/xlink" contentStyleType="text/css" height="310px" preserveAspectRatio="none" style="width:230px;height:310px;background:#FFFFFF;" version="1.1" viewBox="0 0 230 310" width="230px" zoomAndPan="magnify"><defs/><g><!--class A--><g id="elem_A"><rect codeLine="2" fill="#F1F1F1" height="64.2969" id="A" rx="2.5" ry="2.5" style="stroke:#181818;stroke-width:0.5;" width="90.9893" x="70" y="7"/><ellipse cx="107.2354" cy="23" fill="#ADD1B2" rx="11" ry="11" style="stroke:#181818;stroke-width:1.0;"/><path d="M110.2042,28.6406 Q109.6261,28.9375 108.9854,29.0781 Q108.3448,29.2344 107.6417,29.2344 Q105.1417,29.2344 103.8136,27.5938 Q102.5011,25.9375 102.5011,22.8125 Q102.5011,19.6875 103.8136,18.0313 Q105.1417,16.375 107.6417,16.375 Q108.3448,16.375 108.9854,16.5313 Q109.6417,16.6875 110.2042,16.9844 L110.2042,19.7031 Q109.5792,19.125 108.9854,18.8594 Q108.3917,18.5781 107.7667,18.5781 Q106.4229,18.5781 105.7354,19.6563 Q105.0479,20.7188 105.0479,22.8125 Q105.0479,24.9063 105.7354,25.9844 Q106.4229,27.0469 107.7667,27.0469 Q108.3917,27.0469 108.9854,26.7813 Q109.5792,26.5 110.2042,25.9219 L110.2042,28.6406 Z " fill="#000000"/><text fill="#000000" font-family="sans-serif" font-size="14" lengthAdjust="spacing" textLength="9.5771" x="126.1767" y="27.8467">A</text><line style="stroke:#181818;stroke-width:0.5;" x1="71" x2="159.9893" y1="39" y2="39"/><line style="stroke:#181818;stroke-width:0.5;" x1="71" x2="159.9893" y1="47" y2="47"/><ellipse cx="81" cy="60.6484" fill="#84BE84" rx="3" ry="3" style="stroke:#038048;stroke-width:1.0;"/><text fill="#000000" font-family="sans-serif" font-size="14" lengthAdjust="spacing" textLength="64.9893" x="90" y="63.9951">method()</text></g><!--class B--><g id="elem_B"><rect codeLine="7" fill="#F1F1F1" height="64.2969" id="B" rx="2.5" ry="2.5" style="stroke:#181818;stroke-width:0.5;" width="90.9893" x="7" y="131.29"/><ellipse cx="44.2231" cy="147.29" fill="#ADD1B2" rx="11" ry="11" style="stroke:#181818;stroke-width:1.0;"/><path d="M47.1919,152.9306 Q46.6138,153.2275 45.9731,153.3681 Q45.3325,153.5244 44.6294,153.5244 Q42.1294,153.5244 40.8013,151.8837 Q39.4888,150.2275 39.4888,147.1025 Q39.4888,143.9775 40.8013,142.3212 Q42.1294,140.665 44.6294,140.665 Q45.3325,140.665 45.9731,140.8212 Q46.6294,140.9775 47.1919,141.2744 L47.1919,143.9931 Q46.5669,143.415 45.9731,143.1494 Q45.3794,142.8681 44.7544,142.8681 Q43.4106,142.8681 42.7231,143.9462 Q42.0356,145.0087 42.0356,147.1025 Q42.0356,149.1962 42.7231,150.2744 Q43.4106,151.3369 44.7544,151.3369 Q45.3794,151.3369 45.9731,151.0712 Q46.5669,150.79 47.1919,150.2119 L47.1919,152.9306 Z " fill="#000000"/><text fill="#000000" font-family="sans-serif" font-size="14" lengthAdjust="spacing" textLength="9.6045" x="63.1616" y="152.1367">B</text><line style="stroke:#181818;stroke-width:0.5;" x1="8" x2="96.9893" y1="163.29" y2="163.29"/><line style="stroke:#181818;stroke-width:0.5;" x1="8" x2="96.9893" y1="171.29" y2="171.29"/><ellipse cx="18" cy="184.9384" fill="#84BE84" rx="3" ry="3" style="stroke:#038048;stroke-width:1.0;"/><text fill="#000000" font-family="sans-serif" font-size="14" lengthAdjust="spacing" textLength="64.9893" x="27" y="188.2851">method()</text></g><!--class C--><g id="elem_C"><rect codeLine="12" fill="#F1F1F1" height="64.2969" id="C" rx="2.5" ry="2.5" style="stroke:#181818;stroke-width:0.5;" width="90.9893" x="133" y="131.29"/><ellipse cx="170.1462" cy="147.29" fill="#ADD1B2" rx="11" ry="11" style="stroke:#181818;stroke-width:1.0;"/><path d="M173.115,152.9306 Q172.5369,153.2275 171.8962,153.3681 Q171.2556,153.5244 170.5525,153.5244 Q168.0525,153.5244 166.7244,151.8837 Q165.4119,150.2275 165.4119,147.1025 Q165.4119,143.9775 166.7244,142.3212 Q168.0525,140.665 170.5525,140.665 Q171.2556,140.665 171.8962,140.8212 Q172.5525,140.9775 173.115,141.2744 L173.115,143.9931 Q172.49,143.415 171.8962,143.1494 Q171.3025,142.8681 170.6775,142.8681 Q169.3337,142.8681 168.6462,143.9462 Q167.9587,145.0087 167.9587,147.1025 Q167.9587,149.1962 168.6462,150.2744 Q169.3337,151.3369 170.6775,151.3369 Q171.3025,151.3369 171.8962,151.0712 Q172.49,150.79 173.115,150.2119 L173.115,152.9306 Z " fill="#000000"/><text fill="#000000" font-family="sans-serif" font-size="14" lengthAdjust="spacing" textLength="9.7754" x="189.0676" y="152.1367">C</text><line style="stroke:#181818;stroke-width:0.5;" x1="134" x2="222.9893" y1="163.29" y2="163.29"/><line style="stroke:#181818;stroke-width:0.5;" x1="134" x2="222.9893" y1="171.29" y2="171.29"/><ellipse cx="144" cy="184.9384" fill="#84BE84" rx="3" ry="3" style="stroke:#038048;stroke-width:1.0;"/><text fill="#000000" font-family="sans-serif" font-size="14" lengthAdjust="spacing" textLength="64.9893" x="153" y="188.2851">method()</text></g><!--class D--><g id="elem_D"><rect codeLine="17" fill="#F1F1F1" height="48" id="D" rx="2.5" ry="2.5" style="stroke:#181818;stroke-width:0.5;" width="42.7803" x="94.1" y="255.59"/><ellipse cx="109.1" cy="271.59" fill="#ADD1B2" rx="11" ry="11" style="stroke:#181818;stroke-width:1.0;"/><path d="M112.0688,277.2306 Q111.4906,277.5275 110.85,277.6681 Q110.2094,277.8244 109.5063,277.8244 Q107.0063,277.8244 105.6781,276.1838 Q104.3656,274.5275 104.3656,271.4025 Q104.3656,268.2775 105.6781,266.6213 Q107.0063,264.965 109.5063,264.965 Q110.2094,264.965 110.85,265.1213 Q111.5063,265.2775 112.0688,265.5744 L112.0688,268.2931 Q111.4438,267.715 110.85,267.4494 Q110.2563,267.1681 109.6313,267.1681 Q108.2875,267.1681 107.6,268.2463 Q106.9125,269.3088 106.9125,271.4025 Q106.9125,273.4963 107.6,274.5744 Q108.2875,275.6369 109.6313,275.6369 Q110.2563,275.6369 110.85,275.3713 Q111.4438,275.09 112.0688,274.5119 L112.0688,277.2306 Z " fill="#000000"/><text fill="#000000" font-family="sans-serif" font-size="14" lengthAdjust="spacing" textLength="10.7803" x="123.1" y="276.4367">D</text><line style="stroke:#181818;stroke-width:0.5;" x1="95.1" x2="135.8803" y1="287.59" y2="287.59"/><line style="stroke:#181818;stroke-width:0.5;" x1="95.1" x2="135.8803" y1="295.59" y2="295.59"/></g><!--reverse link A to B--><g id="link_A_B"><path codeLine="21" d="M91.0245,87.6404 C81.6145,105.9004 78.06,112.81 68.66,131.05 " fill="none" id="A-backto-B" style="stroke:#181818;stroke-width:1.0;"/><polygon fill="none" points="99.27,71.64,85.691,84.8918,96.3579,90.3889,99.27,71.64" style="stroke:#181818;stroke-width:1.0;"/></g><!--reverse link A to C--><g id="link_A_C"><path codeLine="22" d="M139.9586,87.6439 C149.3586,105.9039 152.93,112.81 162.33,131.05 " fill="none" id="A-backto-C" style="stroke:#181818;stroke-width:1.0;"/><polygon fill="none" points="131.72,71.64,134.624,90.3901,145.2932,84.8977,131.72,71.64" style="stroke:#181818;stroke-width:1.0;"/></g><!--reverse link B to D--><g id="link_B_D"><path codeLine="23" d="M78.5758,211.7002 C88.9158,230.4402 93.12,238.06 102.57,255.17 " fill="none" id="B-backto-D" style="stroke:#181818;stroke-width:1.0;"/><polygon fill="none" points="69.88,195.94,73.3225,214.5988,83.8292,208.8015,69.88,195.94" style="stroke:#181818;stroke-width:1.0;"/></g><!--reverse link C to D--><g id="link_C_D"><path codeLine="24" d="M152.4142,211.7002 C142.0742,230.4402 137.86,238.06 128.42,255.17 " fill="none" id="C-backto-D" style="stroke:#181818;stroke-width:1.0;"/><polygon fill="none" points="161.11,195.94,147.1608,208.8015,157.6675,214.5988,161.11,195.94" style="stroke:#181818;stroke-width:1.0;"/></g><!--SRC=[ZSr13e8m40NG_PpYxz0ORk26jZVm11K6EmcqfAqhyEwIG4sCCM4s_o_-orGmt8jdj8DD2GtjYPcmtWKZPnUwqvbUHDNtM46yuoXP_0Dz3EE7goDS_-Nw23S__1woMrzRtq5J6SqRlN76Sq9sN9ZrBIFoOBC4dvnCYHfSbxg6AaMJseeXlPSt]--></g></svg>