<svg xmlns="http://www.w3.org/2000/svg" xmlns:xlink="http://www.w3.org/1999/xlink" contentStyleType="text/css" height="605px" preserveAspectRatio="none" style="width:493px;height:605px;background:#FFFFFF;" version="1.1" viewBox="0 0 493 605" width="493px" zoomAndPan="magnify"><defs/><g><!--class Book--><g id="elem_Book"><rect codeLine="1" fill="#F1F1F1" height="162.0781" id="Book" rx="2.5" ry="2.5" style="stroke:#181818;stroke-width:0.5;" width="163.6348" x="170.71" y="436.56"/><ellipse cx="230.856" cy="452.56" fill="#ADD1B2" rx="11" ry="11" style="stroke:#181818;stroke-width:1.0;"/><path d="M233.8247,458.2006 Q233.2466,458.4975 232.606,458.6381 Q231.9654,458.7944 231.2622,458.7944 Q228.7622,458.7944 227.4341,457.1537 Q226.1216,455.4975 226.1216,452.3725 Q226.1216,449.2475 227.4341,447.5912 Q228.7622,445.935 231.2622,445.935 Q231.9654,445.935 232.606,446.0912 Q233.2622,446.2475 233.8247,446.5444 L233.8247,449.2631 Q233.1997,448.685 232.606,448.4194 Q232.0122,448.1381 231.3872,448.1381 Q230.0435,448.1381 229.356,449.2162 Q228.6685,450.2787 228.6685,452.3725 Q228.6685,454.4662 229.356,455.5444 Q230.0435,456.6069 231.3872,456.6069 Q232.0122,456.6069 232.606,456.3412 Q233.1997,456.06 233.8247,455.4819 L233.8247,458.2006 Z " fill="#000000"/><text fill="#000000" font-family="sans-serif" font-size="14" lengthAdjust="spacing" textLength="34.8428" x="251.356" y="457.4067">Book</text><line style="stroke:#181818;stroke-width:0.5;" x1="171.71" x2="333.3448" y1="468.56" y2="468.56"/><rect fill="none" height="6" style="stroke:#C82930;stroke-width:1.0;" width="6" x="178.71" y="479.2084"/><text fill="#000000" font-family="sans-serif" font-size="14" lengthAdjust="spacing" textLength="78.3193" x="190.71" y="485.5551">title: String</text><rect fill="none" height="6" style="stroke:#C82930;stroke-width:1.0;" width="6" x="178.71" y="495.5053"/><text fill="#000000" font-family="sans-serif" font-size="14" lengthAdjust="spacing" textLength="97.084" x="190.71" y="501.852">author: String</text><rect fill="none" height="6" style="stroke:#C82930;stroke-width:1.0;" width="6" x="178.71" y="511.8022"/><text fill="#000000" font-family="sans-serif" font-size="14" lengthAdjust="spacing" textLength="84.041" x="190.71" y="518.1489">ISBN: String</text><rect fill="none" height="6" style="stroke:#C82930;stroke-width:1.0;" width="6" x="178.71" y="528.0991"/><text fill="#000000" font-family="sans-serif" font-size="14" lengthAdjust="spacing" textLength="136.4385" x="190.71" y="534.4457">publicationYear: int</text><rect fill="none" height="6" style="stroke:#C82930;stroke-width:1.0;" width="6" x="178.71" y="544.3959"/><text fill="#000000" font-family="sans-serif" font-size="14" lengthAdjust="spacing" textLength="137.6348" x="190.71" y="550.7426">availableCopies: int</text><line style="stroke:#181818;stroke-width:0.5;" x1="171.71" x2="333.3448" y1="558.0444" y2="558.0444"/><ellipse cx="181.71" cy="571.6928" fill="#84BE84" rx="3" ry="3" style="stroke:#038048;stroke-width:1.0;"/><text fill="#000000" font-family="sans-serif" font-size="14" lengthAdjust="spacing" textLength="98.9775" x="190.71" y="575.0395">borrow(): bool</text><ellipse cx="181.71" cy="587.9897" fill="#84BE84" rx="3" ry="3" style="stroke:#038048;stroke-width:1.0;"/><text fill="#000000" font-family="sans-serif" font-size="14" lengthAdjust="spacing" textLength="134.2031" x="190.71" y="591.3364">return_book(): void</text></g><!--class Member--><g id="elem_Member"><rect codeLine="11" fill="#F1F1F1" height="145.7813" id="Member" rx="2.5" ry="2.5" style="stroke:#181818;stroke-width:0.5;" width="237.9551" x="248.55" y="213.78"/><ellipse cx="334.4846" cy="229.78" fill="#ADD1B2" rx="11" ry="11" style="stroke:#181818;stroke-width:1.0;"/><path d="M337.4533,235.4206 Q336.8752,235.7175 336.2346,235.8581 Q335.5939,236.0144 334.8908,236.0144 Q332.3908,236.0144 331.0627,234.3737 Q329.7502,232.7175 329.7502,229.5925 Q329.7502,226.4675 331.0627,224.8112 Q332.3908,223.155 334.8908,223.155 Q335.5939,223.155 336.2346,223.3112 Q336.8908,223.4675 337.4533,223.7644 L337.4533,226.4831 Q336.8283,225.905 336.2346,225.6394 Q335.6408,225.3581 335.0158,225.3581 Q333.6721,225.3581 332.9846,226.4362 Q332.2971,227.4987 332.2971,229.5925 Q332.2971,231.6862 332.9846,232.7644 Q333.6721,233.8269 335.0158,233.8269 Q335.6408,233.8269 336.2346,233.5612 Q336.8283,233.28 337.4533,232.7019 L337.4533,235.4206 Z " fill="#000000"/><text fill="#000000" font-family="sans-serif" font-size="14" lengthAdjust="spacing" textLength="57.5859" x="354.9846" y="234.6267">Member</text><line style="stroke:#181818;stroke-width:0.5;" x1="249.55" x2="485.5051" y1="245.78" y2="245.78"/><rect fill="none" height="6" style="stroke:#C82930;stroke-width:1.0;" width="6" x="256.55" y="256.4284"/><text fill="#000000" font-family="sans-serif" font-size="14" lengthAdjust="spacing" textLength="101.4727" x="268.55" y="262.7751">memberID: int</text><rect fill="none" height="6" style="stroke:#C82930;stroke-width:1.0;" width="6" x="256.55" y="272.7253"/><text fill="#000000" font-family="sans-serif" font-size="14" lengthAdjust="spacing" textLength="90.6514" x="268.55" y="279.072">name: String</text><rect fill="none" height="6" style="stroke:#C82930;stroke-width:1.0;" width="6" x="256.55" y="289.0222"/><text fill="#000000" font-family="sans-serif" font-size="14" lengthAdjust="spacing" textLength="89.5576" x="268.55" y="295.3689">email: String</text><rect fill="none" height="6" style="stroke:#C82930;stroke-width:1.0;" width="6" x="256.55" y="305.3191"/><text fill="#000000" font-family="sans-serif" font-size="14" lengthAdjust="spacing" textLength="200.5596" x="268.55" y="311.6657">borrowedBooks: List&lt;Book&gt;</text><line style="stroke:#181818;stroke-width:0.5;" x1="249.55" x2="485.5051" y1="318.9675" y2="318.9675"/><ellipse cx="259.55" cy="332.6159" fill="#84BE84" rx="3" ry="3" style="stroke:#038048;stroke-width:1.0;"/><text fill="#000000" font-family="sans-serif" font-size="14" lengthAdjust="spacing" textLength="211.9551" x="268.55" y="335.9626">borrowBook(book: Book): bool</text><ellipse cx="259.55" cy="348.9128" fill="#84BE84" rx="3" ry="3" style="stroke:#038048;stroke-width:1.0;"/><text fill="#000000" font-family="sans-serif" font-size="14" lengthAdjust="spacing" textLength="206.3359" x="268.55" y="352.2595">returnBook(book: Book): bool</text></g><!--class Library--><g id="elem_Library"><rect codeLine="20" fill="#F1F1F1" height="145.7813" id="Library" rx="2.5" ry="2.5" style="stroke:#181818;stroke-width:0.5;" width="417.0498" x="7" y="7"/><ellipse cx="186.7988" cy="23" fill="#ADD1B2" rx="11" ry="11" style="stroke:#181818;stroke-width:1.0;"/><path d="M189.7676,28.6406 Q189.1895,28.9375 188.5488,29.0781 Q187.9082,29.2344 187.2051,29.2344 Q184.7051,29.2344 183.377,27.5938 Q182.0645,25.9375 182.0645,22.8125 Q182.0645,19.6875 183.377,18.0313 Q184.7051,16.375 187.2051,16.375 Q187.9082,16.375 188.5488,16.5313 Q189.2051,16.6875 189.7676,16.9844 L189.7676,19.7031 Q189.1426,19.125 188.5488,18.8594 Q187.9551,18.5781 187.3301,18.5781 Q185.9863,18.5781 185.2988,19.6563 Q184.6113,20.7188 184.6113,22.8125 Q184.6113,24.9063 185.2988,25.9844 Q185.9863,27.0469 187.3301,27.0469 Q187.9551,27.0469 188.5488,26.7813 Q189.1426,26.5 189.7676,25.9219 L189.7676,28.6406 Z " fill="#000000"/><text fill="#000000" font-family="sans-serif" font-size="14" lengthAdjust="spacing" textLength="48.9521" x="207.2988" y="27.8467">Library</text><line style="stroke:#181818;stroke-width:0.5;" x1="8" x2="423.0498" y1="39" y2="39"/><rect fill="none" height="6" style="stroke:#C82930;stroke-width:1.0;" width="6" x="15" y="49.6484"/><text fill="#000000" font-family="sans-serif" font-size="14" lengthAdjust="spacing" textLength="133.3623" x="27" y="55.9951">books: List&lt;Book&gt;</text><rect fill="none" height="6" style="stroke:#C82930;stroke-width:1.0;" width="6" x="15" y="65.9453"/><text fill="#000000" font-family="sans-serif" font-size="14" lengthAdjust="spacing" textLength="181.125" x="27" y="72.292">members: List&lt;Member&gt;</text><line style="stroke:#181818;stroke-width:0.5;" x1="8" x2="423.0498" y1="79.5938" y2="79.5938"/><ellipse cx="18" cy="93.2422" fill="#84BE84" rx="3" ry="3" style="stroke:#038048;stroke-width:1.0;"/><text fill="#000000" font-family="sans-serif" font-size="14" lengthAdjust="spacing" textLength="189.0479" x="27" y="96.5889">addBook(book: Book): void</text><ellipse cx="18" cy="109.5391" fill="#84BE84" rx="3" ry="3" style="stroke:#038048;stroke-width:1.0;"/><text fill="#000000" font-family="sans-serif" font-size="14" lengthAdjust="spacing" textLength="287.499" x="27" y="112.8857">registerMember(member: Member): void</text><ellipse cx="18" cy="125.8359" fill="#84BE84" rx="3" ry="3" style="stroke:#038048;stroke-width:1.0;"/><text fill="#000000" font-family="sans-serif" font-size="14" lengthAdjust="spacing" textLength="309.5176" x="27" y="129.1826">lendBook(memberID: int, ISBN: String): bool</text><ellipse cx="18" cy="142.1328" fill="#84BE84" rx="3" ry="3" style="stroke:#038048;stroke-width:1.0;"/><text fill="#000000" font-family="sans-serif" font-size="14" lengthAdjust="spacing" textLength="391.0498" x="27" y="145.4795">acceptReturnedBook(memberID: int, ISBN: String): bool</text></g><!--link Library to Book--><g id="link_Library_Book"><path codeLine="29" d="M218.18,153.18 C220.6,209.5 224.85,289.61 231.52,359.56 C233.92,384.62 236.4734,405.8745 239.8134,430.4945 " fill="none" id="Library-to-Book" style="stroke:#181818;stroke-width:1.0;"/><polygon fill="#181818" points="240.62,436.44,243.3738,426.984,239.9478,431.4854,235.4464,428.0594,240.62,436.44" style="stroke:#181818;stroke-width:1.0;"/><text fill="#000000" font-family="sans-serif" font-size="13" lengthAdjust="spacing" textLength="8.271" x="210.0647" y="172.9535">1</text><text fill="#000000" font-family="sans-serif" font-size="13" lengthAdjust="spacing" textLength="6.5" x="233.3146" y="425.6166">*</text></g><!--link Library to Member--><g id="link_Library_Member"><path codeLine="30" d="M269.11,153.09 C283.64,172.66 295.8033,189.0426 310.3333,208.6126 " fill="none" id="Library-to-Member" style="stroke:#181818;stroke-width:1.0;"/><polygon fill="#181818" points="313.91,213.43,311.7565,203.8195,310.9294,209.4155,305.3333,208.5884,313.91,213.43" style="stroke:#181818;stroke-width:1.0;"/><text fill="#000000" font-family="sans-serif" font-size="13" lengthAdjust="spacing" textLength="8.271" x="265.849" y="172.8549">1</text><text fill="#000000" font-family="sans-serif" font-size="13" lengthAdjust="spacing" textLength="6.5" x="302.5375" y="202.8076">*</text></g><!--link Member to Book--><g id="link_Member_Book"><path codeLine="31" d="M331.3,359.79 C319.12,384.04 308.1428,405.8782 295.6628,430.7282 " fill="none" id="Member-to-Book" style="stroke:#181818;stroke-width:1.0;"/><polygon fill="#181818" points="292.97,436.09,300.5837,429.8425,295.214,431.6218,293.4346,426.2521,292.97,436.09" style="stroke:#181818;stroke-width:1.0;"/><text fill="#000000" font-family="sans-serif" font-size="13" lengthAdjust="spacing" textLength="52.2539" x="313.52" y="402.6269">borrows</text><text fill="#000000" font-family="sans-serif" font-size="13" lengthAdjust="spacing" textLength="8.271" x="319.4787" y="379.5473">1</text><text fill="#000000" font-family="sans-serif" font-size="13" lengthAdjust="spacing" textLength="6.5" x="290.2092" y="425.5134">*</text></g><!--SRC=[ZP6xJiCm58PtFuMLALmoT8rGXy9IgJ2q4nEodQDYrR6ZOwS88TuTtm9n2HAPdF_SllySePYrT6FCYNuGwh_6IQUWfGU7KX-Jn4RtQh3KjeVDKwaC8rTIC2UDVWRcqwLskVxCf69SmRqP9DYVo0qtYEQjlcefDqOb3S6Dg5-yS0g1iv4T-IH4HD97w3dWnDh7l-t3R9Pc_GKzz7vwAQMnq0NV7cSdhRiBx_MSAWXre6ZZVXOO_yZuXjr9ZWpV9rg-E2sRc0B9O0PXNVTxHbn8fZZw4i1KKwT6RTvHaQb0fqx5ncxf_8g5GIO436uVRSA_IxtpoNErgcZJh6brNKNmnK0Y9VceboKqT0sNi5y0]--></g></svg>