<svg xmlns="http://www.w3.org/2000/svg" xmlns:xlink="http://www.w3.org/1999/xlink" contentStyleType="text/css" height="202px" preserveAspectRatio="none" style="width:248px;height:202px;background:#FFFFFF;" version="1.1" viewBox="0 0 248 202" width="248px" zoomAndPan="magnify"><defs/><g><!--class Base1--><g id="elem_Base1"><rect codeLine="2" fill="#F1F1F1" height="64.2969" id="Base1" rx="2.5" ry="2.5" style="stroke:#181818;stroke-width:0.5;" width="99.8965" x="7" y="7"/><ellipse cx="33.2043" cy="23" fill="#ADD1B2" rx="11" ry="11" style="stroke:#181818;stroke-width:1.0;"/><path d="M36.173,28.6406 Q35.5949,28.9375 34.9543,29.0781 Q34.3137,29.2344 33.6105,29.2344 Q31.1105,29.2344 29.7824,27.5938 Q28.4699,25.9375 28.4699,22.8125 Q28.4699,19.6875 29.7824,18.0313 Q31.1105,16.375 33.6105,16.375 Q34.3137,16.375 34.9543,16.5313 Q35.6105,16.6875 36.173,16.9844 L36.173,19.7031 Q35.548,19.125 34.9543,18.8594 Q34.3605,18.5781 33.7355,18.5781 Q32.3918,18.5781 31.7043,19.6563 Q31.0168,20.7188 31.0168,22.8125 Q31.0168,24.9063 31.7043,25.9844 Q32.3918,27.0469 33.7355,27.0469 Q34.3605,27.0469 34.9543,26.7813 Q35.548,26.5 36.173,25.9219 L36.173,28.6406 Z " fill="#000000"/><text fill="#000000" font-family="sans-serif" font-size="14" lengthAdjust="spacing" textLength="42.998" x="49.6941" y="27.8467">Base1</text><line style="stroke:#181818;stroke-width:0.5;" x1="8" x2="105.8965" y1="39" y2="39"/><line style="stroke:#181818;stroke-width:0.5;" x1="8" x2="105.8965" y1="47" y2="47"/><ellipse cx="18" cy="60.6484" fill="#84BE84" rx="3" ry="3" style="stroke:#038048;stroke-width:1.0;"/><text fill="#000000" font-family="sans-serif" font-size="14" lengthAdjust="spacing" textLength="73.8965" x="27" y="63.9951">method1()</text></g><!--class Base2--><g id="elem_Base2"><rect codeLine="7" fill="#F1F1F1" height="64.2969" id="Base2" rx="2.5" ry="2.5" style="stroke:#181818;stroke-width:0.5;" width="99.8965" x="142" y="7"/><ellipse cx="168.2043" cy="23" fill="#ADD1B2" rx="11" ry="11" style="stroke:#181818;stroke-width:1.0;"/><path d="M171.173,28.6406 Q170.5949,28.9375 169.9543,29.0781 Q169.3137,29.2344 168.6105,29.2344 Q166.1105,29.2344 164.7824,27.5938 Q163.4699,25.9375 163.4699,22.8125 Q163.4699,19.6875 164.7824,18.0313 Q166.1105,16.375 168.6105,16.375 Q169.3137,16.375 169.9543,16.5313 Q170.6105,16.6875 171.173,16.9844 L171.173,19.7031 Q170.548,19.125 169.9543,18.8594 Q169.3605,18.5781 168.7355,18.5781 Q167.3918,18.5781 166.7043,19.6563 Q166.0168,20.7188 166.0168,22.8125 Q166.0168,24.9063 166.7043,25.9844 Q167.3918,27.0469 168.7355,27.0469 Q169.3605,27.0469 169.9543,26.7813 Q170.548,26.5 171.173,25.9219 L171.173,28.6406 Z " fill="#000000"/><text fill="#000000" font-family="sans-serif" font-size="14" lengthAdjust="spacing" textLength="42.998" x="184.6941" y="27.8467">Base2</text><line style="stroke:#181818;stroke-width:0.5;" x1="143" x2="240.8965" y1="39" y2="39"/><line style="stroke:#181818;stroke-width:0.5;" x1="143" x2="240.8965" y1="47" y2="47"/><ellipse cx="153" cy="60.6484" fill="#84BE84" rx="3" ry="3" style="stroke:#038048;stroke-width:1.0;"/><text fill="#000000" font-family="sans-serif" font-size="14" lengthAdjust="spacing" textLength="73.8965" x="162" y="63.9951">method2()</text></g><!--class Derived--><g id="elem_Derived"><rect codeLine="12" fill="#F1F1F1" height="64.2969" id="Derived" rx="2.5" ry="2.5" style="stroke:#181818;stroke-width:0.5;" width="99.8965" x="74" y="131.29"/><ellipse cx="94.8825" cy="147.29" fill="#ADD1B2" rx="11" ry="11" style="stroke:#181818;stroke-width:1.0;"/><path d="M97.8513,152.9306 Q97.2731,153.2275 96.6325,153.3681 Q95.9919,153.5244 95.2888,153.5244 Q92.7888,153.5244 91.4606,151.8838 Q90.1481,150.2275 90.1481,147.1025 Q90.1481,143.9775 91.4606,142.3213 Q92.7888,140.665 95.2888,140.665 Q95.9919,140.665 96.6325,140.8213 Q97.2888,140.9775 97.8513,141.2744 L97.8513,143.9931 Q97.2263,143.415 96.6325,143.1494 Q96.0388,142.8681 95.4138,142.8681 Q94.07,142.8681 93.3825,143.9463 Q92.695,145.0088 92.695,147.1025 Q92.695,149.1963 93.3825,150.2744 Q94.07,151.3369 95.4138,151.3369 Q96.0388,151.3369 96.6325,151.0713 Q97.2263,150.79 97.8513,150.2119 L97.8513,152.9306 Z " fill="#000000"/><text fill="#000000" font-family="sans-serif" font-size="14" lengthAdjust="spacing" textLength="54.8242" x="110.1897" y="152.1367">Derived</text><line style="stroke:#181818;stroke-width:0.5;" x1="75" x2="172.8965" y1="163.29" y2="163.29"/><line style="stroke:#181818;stroke-width:0.5;" x1="75" x2="172.8965" y1="171.29" y2="171.29"/><ellipse cx="85" cy="184.9384" fill="#84BE84" rx="3" ry="3" style="stroke:#038048;stroke-width:1.0;"/><text fill="#000000" font-family="sans-serif" font-size="14" lengthAdjust="spacing" textLength="73.8965" x="94" y="188.2851">method3()</text></g><!--reverse link Base1 to Derived--><g id="link_Base1_Derived"><path codeLine="17" d="M82.8526,87.4239 C92.8626,105.6839 96.76,112.81 106.75,131.05 " fill="none" id="Base1-backto-Derived" style="stroke:#181818;stroke-width:1.0;"/><polygon fill="none" points="74.2,71.64,77.5913,90.3081,88.1139,84.5397,74.2,71.64" style="stroke:#181818;stroke-width:1.0;"/></g><!--reverse link Base2 to Derived--><g id="link_Base2_Derived"><path codeLine="18" d="M165.6882,87.3691 C155.5282,105.6291 151.54,112.81 141.4,131.05 " fill="none" id="Base2-backto-Derived" style="stroke:#181818;stroke-width:1.0;"/><polygon fill="none" points="174.44,71.64,160.4451,84.4519,170.9312,90.2864,174.44,71.64" style="stroke:#181818;stroke-width:1.0;"/></g><!--SRC=[POun3eCm34Ltdy8RL1K3wTgfuWOzGKHCOmaSbAGiRUzUH189MW-M_ANt_2liQ60XlEb0BVQZ3W6sdPCNu3hdYQ9rfgrFy06ezf3wWzGHKZzGHvuNCWb35hlUaUM1WtTJ_gh595NM5kOWlXJndI8-PuoMYavBJ-Xfr96T1CjpW2I-lfkcs22LtKTV]--></g></svg>