<svg xmlns="http://www.w3.org/2000/svg" xmlns:xlink="http://www.w3.org/1999/xlink" contentStyleType="text/css" height="326px" preserveAspectRatio="none" style="width:199px;height:326px;background:#FFFFFF;" version="1.1" viewBox="0 0 199 326" width="199px" zoomAndPan="magnify"><defs/><g><!--class Grandparent--><g id="elem_Grandparent"><rect codeLine="1" fill="#F1F1F1" height="64.2969" id="Grandparent" rx="2.5" ry="2.5" style="stroke:#181818;stroke-width:0.5;" width="185.168" x="7" y="7"/><ellipse cx="50.8123" cy="23" fill="#ADD1B2" rx="11" ry="11" style="stroke:#181818;stroke-width:1.0;"/><path d="M53.7811,28.6406 Q53.2029,28.9375 52.5623,29.0781 Q51.9217,29.2344 51.2186,29.2344 Q48.7186,29.2344 47.3904,27.5938 Q46.0779,25.9375 46.0779,22.8125 Q46.0779,19.6875 47.3904,18.0313 Q48.7186,16.375 51.2186,16.375 Q51.9217,16.375 52.5623,16.5313 Q53.2186,16.6875 53.7811,16.9844 L53.7811,19.7031 Q53.1561,19.125 52.5623,18.8594 Q51.9686,18.5781 51.3436,18.5781 Q49.9998,18.5781 49.3123,19.6563 Q48.6248,20.7188 48.6248,22.8125 Q48.6248,24.9063 49.3123,25.9844 Q49.9998,27.0469 51.3436,27.0469 Q51.9686,27.0469 52.5623,26.7813 Q53.1561,26.5 53.7811,25.9219 L53.7811,28.6406 Z " fill="#000000"/><text fill="#000000" font-family="sans-serif" font-size="14" lengthAdjust="spacing" textLength="89.1406" x="71.215" y="27.8467">Grandparent</text><line style="stroke:#181818;stroke-width:0.5;" x1="8" x2="191.168" y1="39" y2="39"/><line style="stroke:#181818;stroke-width:0.5;" x1="8" x2="191.168" y1="47" y2="47"/><ellipse cx="18" cy="60.6484" fill="#84BE84" rx="3" ry="3" style="stroke:#038048;stroke-width:1.0;"/><text fill="#000000" font-family="sans-serif" font-size="14" lengthAdjust="spacing" textLength="159.168" x="27" y="63.9951">method_grandparent()</text></g><!--class Parent--><g id="elem_Parent"><rect codeLine="5" fill="#F1F1F1" height="64.2969" id="Parent" rx="2.5" ry="2.5" style="stroke:#181818;stroke-width:0.5;" width="144.1865" x="27.49" y="131.3"/><ellipse cx="72.4568" cy="147.3" fill="#ADD1B2" rx="11" ry="11" style="stroke:#181818;stroke-width:1.0;"/><path d="M75.4255,152.9406 Q74.8474,153.2375 74.2068,153.3781 Q73.5662,153.5344 72.863,153.5344 Q70.363,153.5344 69.0349,151.8937 Q67.7224,150.2375 67.7224,147.1125 Q67.7224,143.9875 69.0349,142.3312 Q70.363,140.675 72.863,140.675 Q73.5662,140.675 74.2068,140.8312 Q74.863,140.9875 75.4255,141.2844 L75.4255,144.0031 Q74.8005,143.425 74.2068,143.1594 Q73.613,142.8781 72.988,142.8781 Q71.6443,142.8781 70.9568,143.9562 Q70.2693,145.0187 70.2693,147.1125 Q70.2693,149.2062 70.9568,150.2844 Q71.6443,151.3469 72.988,151.3469 Q73.613,151.3469 74.2068,151.0812 Q74.8005,150.8 75.4255,150.2219 L75.4255,152.9406 Z " fill="#000000"/><text fill="#000000" font-family="sans-serif" font-size="14" lengthAdjust="spacing" textLength="45.7529" x="92.9568" y="152.1467">Parent</text><line style="stroke:#181818;stroke-width:0.5;" x1="28.49" x2="170.6765" y1="163.3" y2="163.3"/><line style="stroke:#181818;stroke-width:0.5;" x1="28.49" x2="170.6765" y1="171.3" y2="171.3"/><ellipse cx="38.49" cy="184.9484" fill="#84BE84" rx="3" ry="3" style="stroke:#038048;stroke-width:1.0;"/><text fill="#000000" font-family="sans-serif" font-size="14" lengthAdjust="spacing" textLength="118.1865" x="47.49" y="188.2951">method_parent()</text></g><!--class Child--><g id="elem_Child"><rect codeLine="9" fill="#F1F1F1" height="64.2969" id="Child" rx="2.5" ry="2.5" style="stroke:#181818;stroke-width:0.5;" width="131.2256" x="33.97" y="255.59"/><ellipse cx="77.73" cy="271.59" fill="#ADD1B2" rx="11" ry="11" style="stroke:#181818;stroke-width:1.0;"/><path d="M80.6988,277.2306 Q80.1206,277.5275 79.48,277.6681 Q78.8394,277.8244 78.1363,277.8244 Q75.6363,277.8244 74.3081,276.1838 Q72.9956,274.5275 72.9956,271.4025 Q72.9956,268.2775 74.3081,266.6213 Q75.6363,264.965 78.1363,264.965 Q78.8394,264.965 79.48,265.1213 Q80.1363,265.2775 80.6988,265.5744 L80.6988,268.2931 Q80.0738,267.715 79.48,267.4494 Q78.8863,267.1681 78.2613,267.1681 Q76.9175,267.1681 76.23,268.2463 Q75.5425,269.3088 75.5425,271.4025 Q75.5425,273.4963 76.23,274.5744 Q76.9175,275.6369 78.2613,275.6369 Q78.8863,275.6369 79.48,275.3713 Q80.0738,275.09 80.6988,274.5119 L80.6988,277.2306 Z " fill="#000000"/><text fill="#000000" font-family="sans-serif" font-size="14" lengthAdjust="spacing" textLength="35.3145" x="98.1211" y="276.4367">Child</text><line style="stroke:#181818;stroke-width:0.5;" x1="34.97" x2="164.1956" y1="287.59" y2="287.59"/><line style="stroke:#181818;stroke-width:0.5;" x1="34.97" x2="164.1956" y1="295.59" y2="295.59"/><ellipse cx="44.97" cy="309.2384" fill="#84BE84" rx="3" ry="3" style="stroke:#038048;stroke-width:1.0;"/><text fill="#000000" font-family="sans-serif" font-size="14" lengthAdjust="spacing" textLength="105.2256" x="53.97" y="312.5851">method_child()</text></g><!--reverse link Grandparent to Parent--><g id="link_Grandparent_Parent"><path codeLine="13" d="M99.58,89.64 C99.58,107.9 99.58,112.82 99.58,131.06 " fill="none" id="Grandparent-backto-Parent" style="stroke:#181818;stroke-width:1.0;"/><polygon fill="none" points="99.58,71.64,93.58,89.64,105.58,89.64,99.58,71.64" style="stroke:#181818;stroke-width:1.0;"/></g><!--reverse link Parent to Child--><g id="link_Parent_Child"><path codeLine="14" d="M99.58,213.94 C99.58,232.2 99.58,237.11 99.58,255.35 " fill="none" id="Parent-backto-Child" style="stroke:#181818;stroke-width:1.0;"/><polygon fill="none" points="99.58,195.94,93.58,213.94,105.58,213.94,99.58,195.94" style="stroke:#181818;stroke-width:1.0;"/></g><!--SRC=[Iyv9B2vMS2zAp4ifI2nApIjHgEPIKD3EJIt9o4-9JqU8QsXorN9n9OEL1s2gn5Jad96PauAY9Xaa0b62RA5DZQukr4Yk02GXi040]--></g></svg>