<svg xmlns="http://www.w3.org/2000/svg" xmlns:xlink="http://www.w3.org/1999/xlink" contentStyleType="text/css" height="252px" preserveAspectRatio="none" style="width:764px;height:252px;background:#FFFFFF;" version="1.1" viewBox="0 0 764 252" width="764px" zoomAndPan="magnify"><defs/><g><!--class ClassName--><g id="elem_ClassName"><rect codeLine="1" fill="#F1F1F1" height="113.1875" id="ClassName" rx="2.5" ry="2.5" style="stroke:#181818;stroke-width:0.5;" width="288.582" x="7" y="7"/><ellipse cx="107.9736" cy="23" fill="#ADD1B2" rx="11" ry="11" style="stroke:#181818;stroke-width:1.0;"/><path d="M110.9424,28.6406 Q110.3643,28.9375 109.7236,29.0781 Q109.083,29.2344 108.3799,29.2344 Q105.8799,29.2344 104.5518,27.5938 Q103.2393,25.9375 103.2393,22.8125 Q103.2393,19.6875 104.5518,18.0313 Q105.8799,16.375 108.3799,16.375 Q109.083,16.375 109.7236,16.5313 Q110.3799,16.6875 110.9424,16.9844 L110.9424,19.7031 Q110.3174,19.125 109.7236,18.8594 Q109.1299,18.5781 108.5049,18.5781 Q107.1611,18.5781 106.4736,19.6563 Q105.7861,20.7188 105.7861,22.8125 Q105.7861,24.9063 106.4736,25.9844 Q107.1611,27.0469 108.5049,27.0469 Q109.1299,27.0469 109.7236,26.7813 Q110.3174,26.5 110.9424,25.9219 L110.9424,28.6406 Z " fill="#000000"/><text fill="#000000" font-family="sans-serif" font-size="14" lengthAdjust="spacing" textLength="78.1348" x="128.4736" y="27.8467">ClassName</text><line style="stroke:#181818;stroke-width:0.5;" x1="8" x2="294.582" y1="39" y2="39"/><ellipse cx="18" cy="52.6484" fill="none" rx="3" ry="3" style="stroke:#038048;stroke-width:1.0;"/><text fill="#000000" font-family="sans-serif" font-size="14" lengthAdjust="spacing" textLength="113.4766" x="27" y="55.9951">attribute1: Type</text><rect fill="none" height="6" style="stroke:#C82930;stroke-width:1.0;" width="6" x="15" y="65.9453"/><text fill="#000000" font-family="sans-serif" font-size="14" lengthAdjust="spacing" textLength="113.4766" x="27" y="72.292">attribute2: Type</text><line style="stroke:#181818;stroke-width:0.5;" x1="8" x2="294.582" y1="79.5938" y2="79.5938"/><ellipse cx="18" cy="93.2422" fill="#84BE84" rx="3" ry="3" style="stroke:#038048;stroke-width:1.0;"/><text fill="#000000" font-family="sans-serif" font-size="14" lengthAdjust="spacing" textLength="262.582" x="27" y="96.5889">method1(param1: Type): ReturnType</text><rect fill="#F24D5C" height="6" style="stroke:#C82930;stroke-width:1.0;" width="6" x="15" y="106.5391"/><text fill="#000000" font-family="sans-serif" font-size="14" lengthAdjust="spacing" textLength="262.582" x="27" y="112.8857">method2(param2: Type): ReturnType</text></g><!--class ClassName1--><g id="elem_ClassName1"><rect fill="#F1F1F1" height="48" id="ClassName1" rx="2.5" ry="2.5" style="stroke:#181818;stroke-width:0.5;" width="119.042" x="330.77" y="39.6"/><ellipse cx="345.77" cy="55.6" fill="#ADD1B2" rx="11" ry="11" style="stroke:#181818;stroke-width:1.0;"/><path d="M348.7388,61.2406 Q348.1606,61.5375 347.52,61.6781 Q346.8794,61.8344 346.1763,61.8344 Q343.6763,61.8344 342.3481,60.1937 Q341.0356,58.5375 341.0356,55.4125 Q341.0356,52.2875 342.3481,50.6312 Q343.6763,48.975 346.1763,48.975 Q346.8794,48.975 347.52,49.1312 Q348.1763,49.2875 348.7388,49.5844 L348.7388,52.3031 Q348.1138,51.725 347.52,51.4594 Q346.9263,51.1781 346.3013,51.1781 Q344.9575,51.1781 344.27,52.2562 Q343.5825,53.3187 343.5825,55.4125 Q343.5825,57.5062 344.27,58.5844 Q344.9575,59.6469 346.3013,59.6469 Q346.9263,59.6469 347.52,59.3812 Q348.1138,59.1 348.7388,58.5219 L348.7388,61.2406 Z " fill="#000000"/><text fill="#000000" font-family="sans-serif" font-size="14" lengthAdjust="spacing" textLength="87.042" x="359.77" y="60.4467">ClassName1</text><line style="stroke:#181818;stroke-width:0.5;" x1="331.77" x2="448.812" y1="71.6" y2="71.6"/><line style="stroke:#181818;stroke-width:0.5;" x1="331.77" x2="448.812" y1="79.6" y2="79.6"/></g><!--class ClassName2--><g id="elem_ClassName2"><rect fill="#F1F1F1" height="48" id="ClassName2" rx="2.5" ry="2.5" style="stroke:#181818;stroke-width:0.5;" width="119.042" x="22.77" y="197.19"/><ellipse cx="37.77" cy="213.19" fill="#ADD1B2" rx="11" ry="11" style="stroke:#181818;stroke-width:1.0;"/><path d="M40.7387,218.8306 Q40.1606,219.1275 39.52,219.2681 Q38.8794,219.4244 38.1762,219.4244 Q35.6762,219.4244 34.3481,217.7838 Q33.0356,216.1275 33.0356,213.0025 Q33.0356,209.8775 34.3481,208.2213 Q35.6762,206.565 38.1762,206.565 Q38.8794,206.565 39.52,206.7213 Q40.1762,206.8775 40.7387,207.1744 L40.7387,209.8931 Q40.1137,209.315 39.52,209.0494 Q38.9262,208.7681 38.3012,208.7681 Q36.9575,208.7681 36.27,209.8463 Q35.5825,210.9088 35.5825,213.0025 Q35.5825,215.0963 36.27,216.1744 Q36.9575,217.2369 38.3012,217.2369 Q38.9262,217.2369 39.52,216.9713 Q40.1137,216.69 40.7387,216.1119 L40.7387,218.8306 Z " fill="#000000"/><text fill="#000000" font-family="sans-serif" font-size="14" lengthAdjust="spacing" textLength="87.042" x="51.77" y="218.0367">ClassName2</text><line style="stroke:#181818;stroke-width:0.5;" x1="23.77" x2="140.812" y1="229.19" y2="229.19"/><line style="stroke:#181818;stroke-width:0.5;" x1="23.77" x2="140.812" y1="237.19" y2="237.19"/></g><!--class ClassName3--><g id="elem_ClassName3"><rect fill="#F1F1F1" height="48" id="ClassName3" rx="2.5" ry="2.5" style="stroke:#181818;stroke-width:0.5;" width="119.042" x="176.77" y="197.19"/><ellipse cx="191.77" cy="213.19" fill="#ADD1B2" rx="11" ry="11" style="stroke:#181818;stroke-width:1.0;"/><path d="M194.7388,218.8306 Q194.1606,219.1275 193.52,219.2681 Q192.8794,219.4244 192.1763,219.4244 Q189.6763,219.4244 188.3481,217.7838 Q187.0356,216.1275 187.0356,213.0025 Q187.0356,209.8775 188.3481,208.2213 Q189.6763,206.565 192.1763,206.565 Q192.8794,206.565 193.52,206.7213 Q194.1763,206.8775 194.7388,207.1744 L194.7388,209.8931 Q194.1138,209.315 193.52,209.0494 Q192.9263,208.7681 192.3013,208.7681 Q190.9575,208.7681 190.27,209.8463 Q189.5825,210.9088 189.5825,213.0025 Q189.5825,215.0963 190.27,216.1744 Q190.9575,217.2369 192.3013,217.2369 Q192.9263,217.2369 193.52,216.9713 Q194.1138,216.69 194.7388,216.1119 L194.7388,218.8306 Z " fill="#000000"/><text fill="#000000" font-family="sans-serif" font-size="14" lengthAdjust="spacing" textLength="87.042" x="205.77" y="218.0367">ClassName3</text><line style="stroke:#181818;stroke-width:0.5;" x1="177.77" x2="294.812" y1="229.19" y2="229.19"/><line style="stroke:#181818;stroke-width:0.5;" x1="177.77" x2="294.812" y1="237.19" y2="237.19"/></g><!--class ClassName4--><g id="elem_ClassName4"><rect fill="#F1F1F1" height="48" id="ClassName4" rx="2.5" ry="2.5" style="stroke:#181818;stroke-width:0.5;" width="119.042" x="330.77" y="197.19"/><ellipse cx="345.77" cy="213.19" fill="#ADD1B2" rx="11" ry="11" style="stroke:#181818;stroke-width:1.0;"/><path d="M348.7388,218.8306 Q348.1606,219.1275 347.52,219.2681 Q346.8794,219.4244 346.1763,219.4244 Q343.6763,219.4244 342.3481,217.7838 Q341.0356,216.1275 341.0356,213.0025 Q341.0356,209.8775 342.3481,208.2213 Q343.6763,206.565 346.1763,206.565 Q346.8794,206.565 347.52,206.7213 Q348.1763,206.8775 348.7388,207.1744 L348.7388,209.8931 Q348.1138,209.315 347.52,209.0494 Q346.9263,208.7681 346.3013,208.7681 Q344.9575,208.7681 344.27,209.8463 Q343.5825,210.9088 343.5825,213.0025 Q343.5825,215.0963 344.27,216.1744 Q344.9575,217.2369 346.3013,217.2369 Q346.9263,217.2369 347.52,216.9713 Q348.1138,216.69 348.7388,216.1119 L348.7388,218.8306 Z " fill="#000000"/><text fill="#000000" font-family="sans-serif" font-size="14" lengthAdjust="spacing" textLength="87.042" x="359.77" y="218.0367">ClassName4</text><line style="stroke:#181818;stroke-width:0.5;" x1="331.77" x2="448.812" y1="229.19" y2="229.19"/><line style="stroke:#181818;stroke-width:0.5;" x1="331.77" x2="448.812" y1="237.19" y2="237.19"/></g><!--class ClassName5--><g id="elem_ClassName5"><rect fill="#F1F1F1" height="48" id="ClassName5" rx="2.5" ry="2.5" style="stroke:#181818;stroke-width:0.5;" width="119.042" x="484.77" y="197.19"/><ellipse cx="499.77" cy="213.19" fill="#ADD1B2" rx="11" ry="11" style="stroke:#181818;stroke-width:1.0;"/><path d="M502.7388,218.8306 Q502.1606,219.1275 501.52,219.2681 Q500.8794,219.4244 500.1763,219.4244 Q497.6763,219.4244 496.3481,217.7838 Q495.0356,216.1275 495.0356,213.0025 Q495.0356,209.8775 496.3481,208.2213 Q497.6763,206.565 500.1763,206.565 Q500.8794,206.565 501.52,206.7213 Q502.1763,206.8775 502.7388,207.1744 L502.7388,209.8931 Q502.1138,209.315 501.52,209.0494 Q500.9263,208.7681 500.3013,208.7681 Q498.9575,208.7681 498.27,209.8463 Q497.5825,210.9088 497.5825,213.0025 Q497.5825,215.0963 498.27,216.1744 Q498.9575,217.2369 500.3013,217.2369 Q500.9263,217.2369 501.52,216.9713 Q502.1138,216.69 502.7388,216.1119 L502.7388,218.8306 Z " fill="#000000"/><text fill="#000000" font-family="sans-serif" font-size="14" lengthAdjust="spacing" textLength="87.042" x="513.77" y="218.0367">ClassName5</text><line style="stroke:#181818;stroke-width:0.5;" x1="485.77" x2="602.812" y1="229.19" y2="229.19"/><line style="stroke:#181818;stroke-width:0.5;" x1="485.77" x2="602.812" y1="237.19" y2="237.19"/></g><!--class ClassName6--><g id="elem_ClassName6"><rect fill="#F1F1F1" height="48" id="ClassName6" rx="2.5" ry="2.5" style="stroke:#181818;stroke-width:0.5;" width="119.042" x="638.77" y="197.19"/><ellipse cx="653.77" cy="213.19" fill="#ADD1B2" rx="11" ry="11" style="stroke:#181818;stroke-width:1.0;"/><path d="M656.7388,218.8306 Q656.1606,219.1275 655.52,219.2681 Q654.8794,219.4244 654.1763,219.4244 Q651.6763,219.4244 650.3481,217.7838 Q649.0356,216.1275 649.0356,213.0025 Q649.0356,209.8775 650.3481,208.2213 Q651.6763,206.565 654.1763,206.565 Q654.8794,206.565 655.52,206.7213 Q656.1763,206.8775 656.7388,207.1744 L656.7388,209.8931 Q656.1138,209.315 655.52,209.0494 Q654.9263,208.7681 654.3013,208.7681 Q652.9575,208.7681 652.27,209.8463 Q651.5825,210.9088 651.5825,213.0025 Q651.5825,215.0963 652.27,216.1744 Q652.9575,217.2369 654.3013,217.2369 Q654.9263,217.2369 655.52,216.9713 Q656.1138,216.69 656.7388,216.1119 L656.7388,218.8306 Z " fill="#000000"/><text fill="#000000" font-family="sans-serif" font-size="14" lengthAdjust="spacing" textLength="87.042" x="667.77" y="218.0367">ClassName6</text><line style="stroke:#181818;stroke-width:0.5;" x1="639.77" x2="756.812" y1="229.19" y2="229.19"/><line style="stroke:#181818;stroke-width:0.5;" x1="639.77" x2="756.812" y1="237.19" y2="237.19"/></g><!--link ClassName1 to ClassName2--><g id="link_ClassName1_ClassName2"><path codeLine="8" d="M362.91,87.98 C348.83,99.03 330.95,111.65 313.29,120.19 C269.22,141.51 252.52,131.43 207.29,150.19 C176.16,163.1 148.0797,178.8314 123.7297,193.7114 " fill="none" id="ClassName1-to-ClassName2" style="stroke:#181818;stroke-width:1.0;"/><polygon fill="#181818" points="118.61,196.84,128.3754,195.5602,122.8765,194.2328,124.2039,188.7339,118.61,196.84" style="stroke:#181818;stroke-width:1.0;"/><text fill="#000000" font-family="sans-serif" font-size="13" lengthAdjust="spacing" textLength="74.02" x="208.29" y="163.2569">Association</text></g><!--link ClassName1 to ClassName3--><g id="link_ClassName1_ClassName3"><path codeLine="9" d="M367.24,87.89 C338.2,117.22 301.2725,154.537 272.1625,183.947 " fill="none" id="ClassName1-to-ClassName3" style="stroke:#181818;stroke-width:1.0;"/><polygon fill="none" points="259.5,196.74,276.4268,188.1678,267.8982,179.7262,259.5,196.74" style="stroke:#181818;stroke-width:1.0;"/><text fill="#000000" font-family="sans-serif" font-size="13" lengthAdjust="spacing" textLength="73.7153" x="305.29" y="163.2569">Inheritance</text></g><!--link ClassName1 to ClassName4--><g id="link_ClassName1_ClassName4"><path codeLine="10" d="M390.29,87.89 C390.29,117.22 390.29,161.33 390.29,190.74 " fill="none" id="ClassName1-to-ClassName4" style="stroke:#181818;stroke-width:1.0;stroke-dasharray:7.0,7.0;"/><polygon fill="#181818" points="390.29,196.74,394.29,187.74,390.29,191.74,386.29,187.74,390.29,196.74" style="stroke:#181818;stroke-width:1.0;"/><text fill="#000000" font-family="sans-serif" font-size="13" lengthAdjust="spacing" textLength="81.8276" x="391.29" y="163.2569">Dependency</text></g><!--reverse link ClassName1 to ClassName5--><g id="link_ClassName1_ClassName5"><path codeLine="11" d="M425.1898,96.1135 C443.6898,113.0135 460.06,128.48 481.29,150.19 C496.04,165.27 511.92,182.92 524.05,196.73 " fill="none" id="ClassName1-backto-ClassName5" style="stroke:#181818;stroke-width:1.0;"/><polygon fill="none" points="416.33,88.02,418.062,95.02,425.1898,96.1135,423.4577,89.1135,416.33,88.02" style="stroke:#181818;stroke-width:1.0;"/><text fill="#000000" font-family="sans-serif" font-size="13" lengthAdjust="spacing" textLength="79.8599" x="499.29" y="163.2569">Aggregation</text></g><!--reverse link ClassName1 to ClassName6--><g id="link_ClassName1_ClassName6"><path codeLine="12" d="M461.1332,92.2626 C500.7832,108.3126 542.45,126.49 587.29,150.19 C613.88,164.24 642.56,182.42 664.11,196.72 " fill="none" id="ClassName1-backto-ClassName6" style="stroke:#181818;stroke-width:1.0;"/><polygon fill="#181818" points="450.01,87.76,454.0708,93.719,461.1332,92.2626,457.0725,86.3036,450.01,87.76" style="stroke:#181818;stroke-width:1.0;"/><text fill="#000000" font-family="sans-serif" font-size="13" lengthAdjust="spacing" textLength="81.1865" x="616.29" y="163.2569">Composition</text></g><!--SRC=[RSwz2i8m50NWlKznHxMaqFepP12aBYuEuWjSqqiDc1-IT2ZgkzjIRIEwtE7mNSuHD_GUoluUKH7S4u0KGt3oqWJAEPnRIrt6ngmOirHHk9egdrbqgDvspk54eN7wypYWOa35F_HCad503enjfpsTttblXCGWZVvcZyWjEHpqbPmCg0N5BiiYjkAm9qkw8YtQM1d69hNkIklQKVrJkeZPXaDfb3LUzkm5]--></g></svg>