<svg xmlns="http://www.w3.org/2000/svg" xmlns:xlink="http://www.w3.org/1999/xlink" contentStyleType="text/css" height="282px" preserveAspectRatio="none" style="width:201px;height:282px;background:#FFFFFF;" version="1.1" viewBox="0 0 201 282" width="201px" zoomAndPan="magnify"><defs/><g><line style="stroke:#181818;stroke-width:0.5;stroke-dasharray:5.0,5.0;" x1="23" x2="23" y1="81.2969" y2="201.6953"/><line style="stroke:#181818;stroke-width:0.5;stroke-dasharray:5.0,5.0;" x1="110.8716" x2="110.8716" y1="81.2969" y2="201.6953"/><text fill="#000000" font-family="sans-serif" font-size="14" lengthAdjust="spacing" textLength="31.9102" x="5" y="77.9951">User</text><ellipse cx="23.9551" cy="13.5" fill="#E2E2F0" rx="8" ry="8" style="stroke:#181818;stroke-width:0.5;"/><path d="M23.9551,21.5 L23.9551,48.5 M10.9551,29.5 L36.9551,29.5 M23.9551,48.5 L10.9551,63.5 M23.9551,48.5 L36.9551,63.5 " fill="none" style="stroke:#181818;stroke-width:0.5;"/><text fill="#000000" font-family="sans-serif" font-size="14" lengthAdjust="spacing" textLength="31.9102" x="5" y="213.6904">User</text><ellipse cx="23.9551" cy="225.4922" fill="#E2E2F0" rx="8" ry="8" style="stroke:#181818;stroke-width:0.5;"/><path d="M23.9551,233.4922 L23.9551,260.4922 M10.9551,241.4922 L36.9551,241.4922 M23.9551,260.4922 L10.9551,275.4922 M23.9551,260.4922 L36.9551,275.4922 " fill="none" style="stroke:#181818;stroke-width:0.5;"/><rect fill="#E2E2F0" height="30.2969" rx="2.5" ry="2.5" style="stroke:#181818;stroke-width:0.5;" width="66.2061" x="77.8716" y="50"/><text fill="#000000" font-family="sans-serif" font-size="14" lengthAdjust="spacing" textLength="52.2061" x="84.8716" y="69.9951">System</text><rect fill="#E2E2F0" height="30.2969" rx="2.5" ry="2.5" style="stroke:#181818;stroke-width:0.5;" width="66.2061" x="77.8716" y="200.6953"/><text fill="#000000" font-family="sans-serif" font-size="14" lengthAdjust="spacing" textLength="52.2061" x="84.8716" y="220.6904">System</text><polygon fill="#181818" points="98.9746,108.4297,108.9746,112.4297,98.9746,116.4297,102.9746,112.4297" style="stroke:#181818;stroke-width:1.0;"/><line style="stroke:#181818;stroke-width:1.0;" x1="23.9551" x2="104.9746" y1="112.4297" y2="112.4297"/><text fill="#000000" font-family="sans-serif" font-size="13" lengthAdjust="spacing" textLength="53.3901" x="30.9551" y="107.3638">Request</text><polygon fill="#181818" points="34.9551,137.5625,24.9551,141.5625,34.9551,145.5625,30.9551,141.5625" style="stroke:#181818;stroke-width:1.0;"/><line style="stroke:#181818;stroke-width:1.0;" x1="28.9551" x2="109.9746" y1="141.5625" y2="141.5625"/><text fill="#000000" font-family="sans-serif" font-size="13" lengthAdjust="spacing" textLength="63.0195" x="40.9551" y="136.4966">Response</text><line style="stroke:#181818;stroke-width:1.0;" x1="110.9746" x2="152.9746" y1="170.6953" y2="170.6953"/><line style="stroke:#181818;stroke-width:1.0;" x1="152.9746" x2="152.9746" y1="170.6953" y2="183.6953"/><line style="stroke:#181818;stroke-width:1.0;" x1="111.9746" x2="152.9746" y1="183.6953" y2="183.6953"/><polygon fill="#181818" points="121.9746,179.6953,111.9746,183.6953,121.9746,187.6953,117.9746,183.6953" style="stroke:#181818;stroke-width:1.0;"/><text fill="#000000" font-family="sans-serif" font-size="13" lengthAdjust="spacing" textLength="76.8003" x="117.9746" y="165.6294">Internal call</text><!--SRC=[IqmkoIzI22rEBU8gI2mgoKpEB4ZCAr5G2guiBadDLL98B5Q0CBcuG8eKTEsWV2k5eDJ2qjJY4Yu87oG3KW4IBox8pojEHPA0QV7CAqajoalCKKXEpCa10000]--></g></svg>