<svg xmlns="http://www.w3.org/2000/svg" xmlns:xlink="http://www.w3.org/1999/xlink" contentStyleType="text/css" height="308px" preserveAspectRatio="none" style="width:241px;height:308px;background:#FFFFFF;" version="1.1" viewBox="0 0 241 308" width="241px" zoomAndPan="magnify"><defs/><g><ellipse cx="119.5874" cy="20" fill="#222222" rx="10" ry="10" style="stroke:#222222;stroke-width:1.0;"/><rect fill="#F1F1F1" height="33.9688" rx="12.5" ry="12.5" style="stroke:#181818;stroke-width:0.5;" width="94.8125" x="72.1812" y="50"/><text fill="#000000" font-family="sans-serif" font-size="12" lengthAdjust="spacing" textLength="74.8125" x="82.1812" y="71.1387">Initial Action</text><rect fill="#F1F1F1" height="33.9688" rx="12.5" ry="12.5" style="stroke:#181818;stroke-width:0.5;" width="89.7734" x="74.7007" y="103.9688"/><text fill="#000000" font-family="sans-serif" font-size="12" lengthAdjust="spacing" textLength="69.7734" x="84.7007" y="125.1074">Next Action</text><polygon fill="#F1F1F1" points="90.4224,157.9375,148.7524,157.9375,160.7524,169.9375,148.7524,181.9375,90.4224,181.9375,78.4224,169.9375,90.4224,157.9375" style="stroke:#181818;stroke-width:0.5;"/><text fill="#000000" font-family="sans-serif" font-size="11" lengthAdjust="spacing" textLength="58.3301" x="90.4224" y="173.7456">Condition?</text><text fill="#000000" font-family="sans-serif" font-size="11" lengthAdjust="spacing" textLength="19.0083" x="59.4141" y="167.3433">yes</text><text fill="#000000" font-family="sans-serif" font-size="11" lengthAdjust="spacing" textLength="13.7017" x="160.7524" y="167.3433">no</text><rect fill="#F1F1F1" height="33.9688" rx="12.5" ry="12.5" style="stroke:#181818;stroke-width:0.5;" width="97.6074" x="11" y="191.9375"/><text fill="#000000" font-family="sans-serif" font-size="12" lengthAdjust="spacing" textLength="77.6074" x="21" y="213.0762">Action if true</text><rect fill="#F1F1F1" height="33.9688" rx="12.5" ry="12.5" style="stroke:#181818;stroke-width:0.5;" width="101.5273" x="128.6074" y="191.9375"/><text fill="#000000" font-family="sans-serif" font-size="12" lengthAdjust="spacing" textLength="81.5273" x="138.6074" y="213.0762">Action if false</text><polygon fill="#F1F1F1" points="119.5874,231.9063,131.5874,243.9063,119.5874,255.9063,107.5874,243.9063,119.5874,231.9063" style="stroke:#181818;stroke-width:0.5;"/><ellipse cx="119.5874" cy="286.9063" fill="none" rx="11" ry="11" style="stroke:#222222;stroke-width:1.0;"/><ellipse cx="119.5874" cy="286.9063" fill="#222222" rx="6" ry="6" style="stroke:#222222;stroke-width:1.0;"/><line style="stroke:#181818;stroke-width:1.0;" x1="119.5874" x2="119.5874" y1="30" y2="50"/><polygon fill="#181818" points="115.5874,40,119.5874,50,123.5874,40,119.5874,44" style="stroke:#181818;stroke-width:1.0;"/><line style="stroke:#181818;stroke-width:1.0;" x1="119.5874" x2="119.5874" y1="83.9688" y2="103.9688"/><polygon fill="#181818" points="115.5874,93.9688,119.5874,103.9688,123.5874,93.9688,119.5874,97.9688" style="stroke:#181818;stroke-width:1.0;"/><line style="stroke:#181818;stroke-width:1.0;" x1="78.4224" x2="59.8037" y1="169.9375" y2="169.9375"/><line style="stroke:#181818;stroke-width:1.0;" x1="59.8037" x2="59.8037" y1="169.9375" y2="191.9375"/><polygon fill="#181818" points="55.8037,181.9375,59.8037,191.9375,63.8037,181.9375,59.8037,185.9375" style="stroke:#181818;stroke-width:1.0;"/><line style="stroke:#181818;stroke-width:1.0;" x1="160.7524" x2="179.3711" y1="169.9375" y2="169.9375"/><line style="stroke:#181818;stroke-width:1.0;" x1="179.3711" x2="179.3711" y1="169.9375" y2="191.9375"/><polygon fill="#181818" points="175.3711,181.9375,179.3711,191.9375,183.3711,181.9375,179.3711,185.9375" style="stroke:#181818;stroke-width:1.0;"/><line style="stroke:#181818;stroke-width:1.0;" x1="59.8037" x2="59.8037" y1="225.9063" y2="243.9063"/><line style="stroke:#181818;stroke-width:1.0;" x1="59.8037" x2="107.5874" y1="243.9063" y2="243.9063"/><polygon fill="#181818" points="97.5874,239.9063,107.5874,243.9063,97.5874,247.9063,101.5874,243.9063" style="stroke:#181818;stroke-width:1.0;"/><line style="stroke:#181818;stroke-width:1.0;" x1="179.3711" x2="179.3711" y1="225.9063" y2="243.9063"/><line style="stroke:#181818;stroke-width:1.0;" x1="179.3711" x2="131.5874" y1="243.9063" y2="243.9063"/><polygon fill="#181818" points="141.5874,239.9063,131.5874,243.9063,141.5874,247.9063,137.5874,243.9063" style="stroke:#181818;stroke-width:1.0;"/><line style="stroke:#181818;stroke-width:1.0;" x1="119.5874" x2="119.5874" y1="137.9375" y2="157.9375"/><polygon fill="#181818" points="115.5874,147.9375,119.5874,157.9375,123.5874,147.9375,119.5874,151.9375" style="stroke:#181818;stroke-width:1.0;"/><line style="stroke:#181818;stroke-width:1.0;" x1="119.5874" x2="119.5874" y1="255.9063" y2="275.9063"/><polygon fill="#181818" points="115.5874,265.9063,119.5874,275.9063,123.5874,265.9063,119.5874,269.9063" style="stroke:#181818;stroke-width:1.0;"/><!--SRC=[NOmn2e0m34Ntd29ZUuKwY3YvU8UYAGPA8cq4lRqLmS7n_VVurM8n29EmSSmuBCOg7OIPJlk84xfHPUK7Uu-saQ2xg7f036-5BR9oK0UKAw4J_SaKszvikqbGJVSR]--></g></svg>