<svg xmlns="http://www.w3.org/2000/svg" xmlns:xlink="http://www.w3.org/1999/xlink" contentStyleType="text/css" height="240px" preserveAspectRatio="none" style="width:432px;height:240px;background:#FFFFFF;" version="1.1" viewBox="0 0 432 240" width="432px" zoomAndPan="magnify"><defs/><g><!--entity ActorName--><g id="elem_ActorName"><ellipse cx="166.8138" cy="14" fill="#F1F1F1" rx="8" ry="8" style="stroke:#181818;stroke-width:0.5;"/><path d="M166.8138,22 L166.8138,49 M153.8138,30 L179.8138,30 M166.8138,49 L153.8138,64 M166.8138,49 L179.8138,64 " fill="none" style="stroke:#181818;stroke-width:0.5;"/><text fill="#000000" font-family="sans-serif" font-size="14" lengthAdjust="spacing" textLength="78.3877" x="127.62" y="78.4951">ActorName</text></g><g id="elem_UC1"><ellipse cx="70.8115" cy="196.9423" fill="#F1F1F1" rx="64.8115" ry="15.3623" style="stroke:#181818;stroke-width:0.5;"/><text fill="#000000" font-family="sans-serif" font-size="14" lengthAdjust="spacing" textLength="78.2236" x="28.6997" y="200.6899">Use Case 1</text></g><g id="elem_UC2"><ellipse cx="361.8115" cy="196.9423" fill="#F1F1F1" rx="64.8115" ry="15.3623" style="stroke:#181818;stroke-width:0.5;"/><text fill="#000000" font-family="sans-serif" font-size="14" lengthAdjust="spacing" textLength="78.2236" x="319.6997" y="200.6899">Use Case 2</text></g><!--entity UC3--><g id="elem_UC3"><ellipse cx="247.8148" cy="167.29" fill="#F1F1F1" rx="8" ry="8" style="stroke:#181818;stroke-width:0.5;"/><path d="M247.8148,175.29 L247.8148,202.29 M234.8148,183.29 L260.8148,183.29 M247.8148,202.29 L234.8148,217.29 M247.8148,202.29 L260.8148,217.29 " fill="none" style="stroke:#181818;stroke-width:0.5;"/><text fill="#000000" font-family="sans-serif" font-size="14" lengthAdjust="spacing" textLength="28.9297" x="233.35" y="231.7851">UC3</text></g><!--link ActorName to UC1--><g id="link_ActorName_UC1"><path d="M143.08,82.04 C122.76,114.07 97.7748,153.4439 83.3448,176.1839 " fill="none" id="ActorName-to-UC1" style="stroke:#181818;stroke-width:1.0;"/><polygon fill="#181818" points="80.13,181.25,88.3295,175.794,82.809,177.0283,81.5747,171.5077,80.13,181.25" style="stroke:#181818;stroke-width:1.0;"/></g><!--link ActorName to UC2--><g id="link_ActorName_UC2"><path d="M206.46,73.77 C222.23,85.47 240.47,99.15 256.81,111.79 C288.04,135.95 319.151,161.0871 339.841,177.9671 " fill="none" id="ActorName-to-UC2" style="stroke:#181818;stroke-width:1.0;"/><polygon fill="#181818" points="344.49,181.76,340.0451,172.9712,340.6158,178.5992,334.9878,179.17,344.49,181.76" style="stroke:#181818;stroke-width:1.0;"/></g><!--link UC1 to UC2--><g id="link_UC1_UC2"><path d="M87.55,181.7 C108.25,163.96 145.43,135.7 183.31,124.57 C211.03,116.42 220.58,116.48 248.31,124.57 C286.45,135.69 319.4137,160.0796 340.3237,177.8096 " fill="none" id="UC1-to-UC2" style="stroke:#181818;stroke-width:1.0;"/><polygon fill="#181818" points="344.9,181.69,340.6224,172.8186,341.0864,178.4564,335.4486,178.9203,344.9,181.69" style="stroke:#181818;stroke-width:1.0;"/><text fill="#000000" font-family="sans-serif" font-size="13" lengthAdjust="spacing" textLength="63.0068" x="184.31" y="124.8569">&#171;include&#187;</text></g><!--link UC1 to UC3--><g id="link_UC1_UC3"><path d="M135.97,196.94 C171.25,196.94 205.88,196.94 227.12,196.94 " fill="none" id="UC1-to-UC3" style="stroke:#181818;stroke-width:1.0;stroke-dasharray:7.0,7.0;"/><polygon fill="#181818" points="233.12,196.94,224.12,192.94,228.12,196.94,224.12,200.94,233.12,196.94" style="stroke:#181818;stroke-width:1.0;"/><text fill="#000000" font-family="sans-serif" font-size="13" lengthAdjust="spacing" textLength="61.1851" x="153.98" y="190.0069">&#171;extend&#187;</text></g><!--SRC=[IqmkoIzIS0IHVecvgLnSfSMfoOd5gGfAeK326SGoL598B5O8TJR48cS4bJFYueAReQ2hQmTMZYu2L0GKLj0joapFA868A5WfsDXavYNdbAQasjc1fVL04iPWYTIAajIy53ix0000]--></g></svg>