<svg xmlns="http://www.w3.org/2000/svg" xmlns:xlink="http://www.w3.org/1999/xlink" contentStyleType="text/css" height="353px" preserveAspectRatio="none" style="width:86px;height:353px;background:#FFFFFF;" version="1.1" viewBox="0 0 86 353" width="86px" zoomAndPan="magnify"><defs/><g><ellipse cx="39.98" cy="16" fill="#222222" rx="10" ry="10" style="stroke:#222222;stroke-width:1.0;"/><g id="State1"><rect fill="#F1F1F1" height="50" rx="12.5" ry="12.5" style="stroke:#181818;stroke-width:0.5;" width="65.9648" x="7" y="87"/><line style="stroke:#181818;stroke-width:0.5;" x1="7" x2="72.9648" y1="113.2969" y2="113.2969"/><text fill="#000000" font-family="sans-serif" font-size="14" lengthAdjust="spacing" textLength="45.9648" x="17" y="104.9951">State1</text></g><g id="State2"><rect fill="#F1F1F1" height="50" rx="12.5" ry="12.5" style="stroke:#181818;stroke-width:0.5;" width="65.9648" x="7" y="214"/><line style="stroke:#181818;stroke-width:0.5;" x1="7" x2="72.9648" y1="240.2969" y2="240.2969"/><text fill="#000000" font-family="sans-serif" font-size="14" lengthAdjust="spacing" textLength="45.9648" x="17" y="231.9951">State2</text></g><ellipse cx="39.98" cy="336" fill="none" rx="11" ry="11" style="stroke:#222222;stroke-width:1.0;"/><ellipse cx="39.98" cy="336" fill="#222222" rx="6" ry="6" style="stroke:#222222;stroke-width:1.0;"/><!--link *start* to State1--><g id="link_*start*_State1"><path d="M39.98,26.36 C39.98,40.29 39.98,60.95 39.98,80.65 " fill="none" id="*start*-to-State1" style="stroke:#181818;stroke-width:1.0;"/><polygon fill="#181818" points="39.98,86.65,43.98,77.65,39.98,81.65,35.98,77.65,39.98,86.65" style="stroke:#181818;stroke-width:1.0;"/></g><!--link State1 to State2--><g id="link_State1_State2"><path d="M39.98,137.4 C39.98,159.42 39.98,185.66 39.98,207.66 " fill="none" id="State1-to-State2" style="stroke:#181818;stroke-width:1.0;"/><polygon fill="#181818" points="39.98,213.66,43.98,204.66,39.98,208.66,35.98,204.66,39.98,213.66" style="stroke:#181818;stroke-width:1.0;"/><text fill="#000000" font-family="sans-serif" font-size="13" lengthAdjust="spacing" textLength="37.2417" x="40.98" y="180.0669">Event</text></g><!--link State2 to *end*--><g id="link_State2_*end*"><path d="M39.98,264.46 C39.98,284.04 39.98,304.49 39.98,318.8 " fill="none" id="State2-to-*end*" style="stroke:#181818;stroke-width:1.0;"/><polygon fill="#181818" points="39.98,324.8,43.98,315.8,39.98,319.8,35.98,315.8,39.98,324.8" style="stroke:#181818;stroke-width:1.0;"/></g><!--SRC=[YzQALT3LjLC8BaaiIJNaWb084IC5AmNNijIy4Yue5oGJhHKB0000]--></g></svg>