<svg xmlns="http://www.w3.org/2000/svg" xmlns:xlink="http://www.w3.org/1999/xlink" contentStyleType="text/css" height="279px" preserveAspectRatio="none" style="width:346px;height:279px;background:#FFFFFF;" version="1.1" viewBox="0 0 346 279" width="346px" zoomAndPan="magnify"><defs/><g><!--cluster Component1--><g id="cluster_Component1"><rect fill="none" height="113.29" rx="2.5" ry="2.5" style="stroke:#181818;stroke-width:1.0;" width="326" x="7" y="7"/><rect fill="none" height="10" style="stroke:#181818;stroke-width:1.0;" width="15" x="313" y="12"/><rect fill="none" height="2" style="stroke:#181818;stroke-width:1.0;" width="4" x="311" y="14"/><rect fill="none" height="2" style="stroke:#181818;stroke-width:1.0;" width="4" x="311" y="18"/><text fill="#000000" font-family="sans-serif" font-size="14" font-weight="bold" lengthAdjust="spacing" textLength="99.9824" x="120.0088" y="32.9951">Component1</text></g><!--cluster Component2--><g id="cluster_Component2"><rect fill="none" height="113.3" rx="2.5" ry="2.5" style="stroke:#181818;stroke-width:1.0;" width="179" x="154" y="160.29"/><rect fill="none" height="10" style="stroke:#181818;stroke-width:1.0;" width="15" x="313" y="165.29"/><rect fill="none" height="2" style="stroke:#181818;stroke-width:1.0;" width="4" x="311" y="167.29"/><rect fill="none" height="2" style="stroke:#181818;stroke-width:1.0;" width="4" x="311" y="171.29"/><text fill="#000000" font-family="sans-serif" font-size="14" font-weight="bold" lengthAdjust="spacing" textLength="99.9824" x="193.5088" y="186.2851">Component2</text></g><!--entity Interface1--><g id="elem_Interface1"><rect fill="#F1F1F1" height="46.2969" rx="2.5" ry="2.5" style="stroke:#181818;stroke-width:0.5;" width="111.5859" x="31.21" y="50"/><rect fill="#F1F1F1" height="10" style="stroke:#181818;stroke-width:0.5;" width="15" x="122.7959" y="55"/><rect fill="#F1F1F1" height="2" style="stroke:#181818;stroke-width:0.5;" width="4" x="120.7959" y="57"/><rect fill="#F1F1F1" height="2" style="stroke:#181818;stroke-width:0.5;" width="4" x="120.7959" y="61"/><text fill="#000000" font-family="sans-serif" font-size="14" lengthAdjust="spacing" textLength="71.5859" x="46.21" y="82.9951">Interface1</text></g><!--entity Interface2--><g id="elem_Interface2"><rect fill="#F1F1F1" height="46.2969" rx="2.5" ry="2.5" style="stroke:#181818;stroke-width:0.5;" width="111.5859" x="178.21" y="50"/><rect fill="#F1F1F1" height="10" style="stroke:#181818;stroke-width:0.5;" width="15" x="269.7959" y="55"/><rect fill="#F1F1F1" height="2" style="stroke:#181818;stroke-width:0.5;" width="4" x="267.7959" y="57"/><rect fill="#F1F1F1" height="2" style="stroke:#181818;stroke-width:0.5;" width="4" x="267.7959" y="61"/><text fill="#000000" font-family="sans-serif" font-size="14" lengthAdjust="spacing" textLength="71.5859" x="193.21" y="82.9951">Interface2</text></g><!--entity Interface3--><g id="elem_Interface3"><rect fill="#F1F1F1" height="46.2969" rx="2.5" ry="2.5" style="stroke:#181818;stroke-width:0.5;" width="111.5859" x="178.21" y="203.29"/><rect fill="#F1F1F1" height="10" style="stroke:#181818;stroke-width:0.5;" width="15" x="269.7959" y="208.29"/><rect fill="#F1F1F1" height="2" style="stroke:#181818;stroke-width:0.5;" width="4" x="267.7959" y="210.29"/><rect fill="#F1F1F1" height="2" style="stroke:#181818;stroke-width:0.5;" width="4" x="267.7959" y="214.29"/><text fill="#000000" font-family="sans-serif" font-size="14" lengthAdjust="spacing" textLength="71.5859" x="193.21" y="236.2851">Interface3</text></g><!--link Component1 to Component2--><g id="link_Component1_Component2"><path d="M325,120.4529 C325,120.7191 325,120.986 325,121.2534 C325,121.7882 325,122.3253 325,122.8644 C325,131.4908 325,140.6544 325,149.8175 C325,152.1083 325,154.399 325,156.6814 C325,157.8225 325,152.9616 325,154.0975 " fill="none" id="Component1-to-Component2" style="stroke:#181818;stroke-width:1.0;"/><polygon fill="#181818" points="325,160.0975,329,151.0975,325,155.0975,321,151.0975,325,160.0975" style="stroke:#181818;stroke-width:1.0;"/></g><!--SRC=[IyxFBSZFIyqhKN26iGmLghaK5A8zyqfIYz8IarCDOr6uHh5SjLnSoPZwZD3q6OCL8Xchgsk7f1e0]--></g></svg>