<svg xmlns="http://www.w3.org/2000/svg" xmlns:xlink="http://www.w3.org/1999/xlink" contentStyleType="text/css" height="285px" preserveAspectRatio="none" style="width:228px;height:285px;background:#FFFFFF;" version="1.1" viewBox="0 0 228 285" width="228px" zoomAndPan="magnify"><defs/><g><!--cluster Server--><g id="cluster_Server"><polygon fill="none" points="25,16,35,6,211,6,211,107.29,201,117.29,25,117.29,25,16" style="stroke:#181818;stroke-width:1.0;"/><line style="stroke:#181818;stroke-width:1.0;" x1="201" x2="211" y1="16" y2="6"/><line style="stroke:#181818;stroke-width:1.0;" x1="25" x2="201" y1="16" y2="16"/><line style="stroke:#181818;stroke-width:1.0;" x1="201" x2="201" y1="16" y2="117.29"/><text fill="#000000" font-family="sans-serif" font-size="14" font-weight="bold" lengthAdjust="spacing" textLength="52.0078" x="87.9961" y="31.9951">Server</text></g><!--cluster Client--><g id="cluster_Client"><polygon fill="none" points="16,167.29,26,157.29,211,157.29,211,258.59,201,268.59,16,268.59,16,167.29" style="stroke:#181818;stroke-width:1.0;"/><line style="stroke:#181818;stroke-width:1.0;" x1="201" x2="211" y1="167.29" y2="157.29"/><line style="stroke:#181818;stroke-width:1.0;" x1="16" x2="201" y1="167.29" y2="167.29"/><line style="stroke:#181818;stroke-width:1.0;" x1="201" x2="201" y1="167.29" y2="268.59"/><text fill="#000000" font-family="sans-serif" font-size="14" font-weight="bold" lengthAdjust="spacing" textLength="46.0264" x="86.4868" y="183.2851">Client</text></g><!--entity WebApp.war--><g id="elem_WebApp.war"><rect fill="#F1F1F1" height="39.2969" rx="2.5" ry="2.5" style="stroke:#181818;stroke-width:0.5;" width="118.9287" x="48.54" y="54"/><polygon fill="#F1F1F1" points="150.4687,59,150.4687,73,162.4687,73,162.4687,65,156.4687,59,150.4687,59" style="stroke:#181818;stroke-width:0.5;"/><line style="stroke:#181818;stroke-width:0.5;" x1="156.4687" x2="156.4687" y1="59" y2="65"/><line style="stroke:#181818;stroke-width:0.5;" x1="162.4687" x2="156.4687" y1="65" y2="65"/><text fill="#000000" font-family="sans-serif" font-size="14" lengthAdjust="spacing" textLength="88.9287" x="58.54" y="79.9951">WebApp.war</text></g><!--entity ClientApp.exe--><g id="elem_ClientApp.exe"><rect fill="#F1F1F1" height="39.2969" rx="2.5" ry="2.5" style="stroke:#181818;stroke-width:0.5;" width="127.8428" x="40.08" y="205.29"/><polygon fill="#F1F1F1" points="150.9228,210.29,150.9228,224.29,162.9228,224.29,162.9228,216.29,156.9228,210.29,150.9228,210.29" style="stroke:#181818;stroke-width:0.5;"/><line style="stroke:#181818;stroke-width:0.5;" x1="156.9228" x2="156.9228" y1="210.29" y2="216.29"/><line style="stroke:#181818;stroke-width:0.5;" x1="162.9228" x2="156.9228" y1="216.29" y2="216.29"/><text fill="#000000" font-family="sans-serif" font-size="14" lengthAdjust="spacing" textLength="97.8428" x="50.08" y="231.2851">ClientApp.exe</text></g><!--link Server to Client--><g id="link_Server_Client"><path d="M203,117.9923 C203,118.5108 203,119.0316 203,119.5549 C203,120.6013 203,121.657 203,122.7211 C203,131.2333 203,140.2756 203,149.3175 C203,151.578 203,153.8384 203,156.0905 C203,156.372 203,150.6534 203,150.9347 " fill="none" id="Server-to-Client" style="stroke:#181818;stroke-width:1.0;"/><polygon fill="#181818" points="203,156.9347,207,147.9347,203,151.9347,199,147.9347,203,156.9347" style="stroke:#181818;stroke-width:1.0;"/></g><!--SRC=[oyjFILLG2aujAaijKbAevb9GI2mgoKnBJ2vHK0fFJN8iAD0hJonIughbuie3AtNEoKpDAq5N2X45gKwjI0MhXXYfeAjhfm2H1000]--></g></svg>