<svg xmlns="http://www.w3.org/2000/svg" xmlns:xlink="http://www.w3.org/1999/xlink" contentStyleType="text/css" height="457px" preserveAspectRatio="none" style="width:788px;height:457px;background:#FFFFFF;" version="1.1" viewBox="0 0 788 457" width="788px" zoomAndPan="magnify"><defs/><g><!--class Animal--><g id="elem_Animal"><rect codeLine="2" fill="#F1F1F1" height="96.8906" id="Animal" rx="2.5" ry="2.5" style="stroke:#181818;stroke-width:0.5;" width="154.4746" x="45.68" y="7"/><ellipse cx="94.4442" cy="23" fill="#ADD1B2" rx="11" ry="11" style="stroke:#181818;stroke-width:1.0;"/><path d="M97.4129,28.6406 Q96.8348,28.9375 96.1942,29.0781 Q95.5535,29.2344 94.8504,29.2344 Q92.3504,29.2344 91.0223,27.5938 Q89.7098,25.9375 89.7098,22.8125 Q89.7098,19.6875 91.0223,18.0313 Q92.3504,16.375 94.8504,16.375 Q95.5535,16.375 96.1942,16.5313 Q96.8504,16.6875 97.4129,16.9844 L97.4129,19.7031 Q96.7879,19.125 96.1942,18.8594 Q95.6004,18.5781 94.9754,18.5781 Q93.6317,18.5781 92.9442,19.6563 Q92.2567,20.7188 92.2567,22.8125 Q92.2567,24.9063 92.9442,25.9844 Q93.6317,27.0469 94.9754,27.0469 Q95.6004,27.0469 96.1942,26.7813 Q96.7879,26.5 97.4129,25.9219 L97.4129,28.6406 Z " fill="#000000"/><text fill="#000000" font-family="sans-serif" font-size="14" lengthAdjust="spacing" textLength="48.4463" x="114.9442" y="27.8467">Animal</text><line style="stroke:#181818;stroke-width:0.5;" x1="46.68" x2="199.1546" y1="39" y2="39"/><rect fill="none" height="6" style="stroke:#C82930;stroke-width:1.0;" width="6" x="53.68" y="49.6484"/><text fill="#000000" font-family="sans-serif" font-size="14" lengthAdjust="spacing" textLength="67.4092" x="65.68" y="55.9951">name: str</text><line style="stroke:#181818;stroke-width:0.5;" x1="46.68" x2="199.1546" y1="63.2969" y2="63.2969"/><ellipse cx="56.68" cy="76.9453" fill="#84BE84" rx="3" ry="3" style="stroke:#038048;stroke-width:1.0;"/><text fill="#000000" font-family="sans-serif" font-size="14" lengthAdjust="spacing" textLength="128.4746" x="65.68" y="80.292">__init__(name: str)</text><ellipse cx="56.68" cy="93.2422" fill="#84BE84" rx="3" ry="3" style="stroke:#038048;stroke-width:1.0;"/><text fill="#000000" font-family="sans-serif" font-size="14" lengthAdjust="spacing" textLength="52.4043" x="65.68" y="96.5889">speak()</text></g><!--class Dog--><g id="elem_Dog"><rect codeLine="9" fill="#F1F1F1" height="113.1875" id="Dog" rx="2.5" ry="2.5" style="stroke:#181818;stroke-width:0.5;" width="231.8369" x="7" y="163.89"/><ellipse cx="104.5522" cy="179.89" fill="#ADD1B2" rx="11" ry="11" style="stroke:#181818;stroke-width:1.0;"/><path d="M107.521,185.5306 Q106.9429,185.8275 106.3022,185.9681 Q105.6616,186.1244 104.9585,186.1244 Q102.4585,186.1244 101.1304,184.4838 Q99.8179,182.8275 99.8179,179.7025 Q99.8179,176.5775 101.1304,174.9213 Q102.4585,173.265 104.9585,173.265 Q105.6616,173.265 106.3022,173.4213 Q106.9585,173.5775 107.521,173.8744 L107.521,176.5931 Q106.896,176.015 106.3022,175.7494 Q105.7085,175.4681 105.0835,175.4681 Q103.7397,175.4681 103.0522,176.5463 Q102.3647,177.6088 102.3647,179.7025 Q102.3647,181.7963 103.0522,182.8744 Q103.7397,183.9369 105.0835,183.9369 Q105.7085,183.9369 106.3022,183.6713 Q106.896,183.39 107.521,182.8119 L107.521,185.5306 Z " fill="#000000"/><text fill="#000000" font-family="sans-serif" font-size="14" lengthAdjust="spacing" textLength="28.2324" x="125.0522" y="184.7367">Dog</text><line style="stroke:#181818;stroke-width:0.5;" x1="8" x2="237.8369" y1="195.89" y2="195.89"/><rect fill="none" height="6" style="stroke:#C82930;stroke-width:1.0;" width="6" x="15" y="206.5384"/><text fill="#000000" font-family="sans-serif" font-size="14" lengthAdjust="spacing" textLength="68.4619" x="27" y="212.8851">breed: str</text><line style="stroke:#181818;stroke-width:0.5;" x1="8" x2="237.8369" y1="220.1869" y2="220.1869"/><ellipse cx="18" cy="233.8353" fill="#84BE84" rx="3" ry="3" style="stroke:#038048;stroke-width:1.0;"/><text fill="#000000" font-family="sans-serif" font-size="14" lengthAdjust="spacing" textLength="205.8369" x="27" y="237.182">__init__(name: str, breed: str)</text><ellipse cx="18" cy="250.1322" fill="#84BE84" rx="3" ry="3" style="stroke:#038048;stroke-width:1.0;"/><text fill="#000000" font-family="sans-serif" font-size="14" lengthAdjust="spacing" textLength="52.4043" x="27" y="253.4789">speak()</text><ellipse cx="18" cy="266.4291" fill="#84BE84" rx="3" ry="3" style="stroke:#038048;stroke-width:1.0;"/><text fill="#000000" font-family="sans-serif" font-size="14" lengthAdjust="spacing" textLength="93.8916" x="27" y="269.7757">display_info()</text></g><!--class Swimmer--><g id="elem_Swimmer"><rect codeLine="19" fill="#F1F1F1" height="64.2969" id="Swimmer" rx="2.5" ry="2.5" style="stroke:#181818;stroke-width:0.5;" width="97.8711" x="273.98" y="188.34"/><ellipse cx="288.98" cy="204.34" fill="#ADD1B2" rx="11" ry="11" style="stroke:#181818;stroke-width:1.0;"/><path d="M291.9488,209.9806 Q291.3706,210.2775 290.73,210.4181 Q290.0894,210.5744 289.3863,210.5744 Q286.8863,210.5744 285.5581,208.9337 Q284.2456,207.2775 284.2456,204.1525 Q284.2456,201.0275 285.5581,199.3712 Q286.8863,197.715 289.3863,197.715 Q290.0894,197.715 290.73,197.8712 Q291.3863,198.0275 291.9488,198.3244 L291.9488,201.0431 Q291.3238,200.465 290.73,200.1994 Q290.1363,199.9181 289.5113,199.9181 Q288.1675,199.9181 287.48,200.9962 Q286.7925,202.0587 286.7925,204.1525 Q286.7925,206.2462 287.48,207.3244 Q288.1675,208.3869 289.5113,208.3869 Q290.1363,208.3869 290.73,208.1212 Q291.3238,207.84 291.9488,207.2619 L291.9488,209.9806 Z " fill="#000000"/><text fill="#000000" font-family="sans-serif" font-size="14" lengthAdjust="spacing" textLength="65.8711" x="302.98" y="209.1867">Swimmer</text><line style="stroke:#181818;stroke-width:0.5;" x1="274.98" x2="370.8511" y1="220.34" y2="220.34"/><line style="stroke:#181818;stroke-width:0.5;" x1="274.98" x2="370.8511" y1="228.34" y2="228.34"/><ellipse cx="284.98" cy="241.9884" fill="#84BE84" rx="3" ry="3" style="stroke:#038048;stroke-width:1.0;"/><text fill="#000000" font-family="sans-serif" font-size="14" lengthAdjust="spacing" textLength="47.1953" x="293.98" y="245.3351">swim()</text></g><!--class Dolphin--><g id="elem_Dolphin"><rect codeLine="24" fill="#F1F1F1" height="113.1875" id="Dolphin" rx="2.5" ry="2.5" style="stroke:#181818;stroke-width:0.5;" width="326.1113" x="17.86" y="337.08"/><ellipse cx="149.7868" cy="353.08" fill="#ADD1B2" rx="11" ry="11" style="stroke:#181818;stroke-width:1.0;"/><path d="M152.7555,358.7206 Q152.1774,359.0175 151.5368,359.1581 Q150.8961,359.3144 150.193,359.3144 Q147.693,359.3144 146.3649,357.6738 Q145.0524,356.0175 145.0524,352.8925 Q145.0524,349.7675 146.3649,348.1113 Q147.693,346.455 150.193,346.455 Q150.8961,346.455 151.5368,346.6113 Q152.193,346.7675 152.7555,347.0644 L152.7555,349.7831 Q152.1305,349.205 151.5368,348.9394 Q150.943,348.6581 150.318,348.6581 Q148.9743,348.6581 148.2868,349.7363 Q147.5993,350.7988 147.5993,352.8925 Q147.5993,354.9863 148.2868,356.0644 Q148.9743,357.1269 150.318,357.1269 Q150.943,357.1269 151.5368,356.8613 Q152.1305,356.58 152.7555,356.0019 L152.7555,358.7206 Z " fill="#000000"/><text fill="#000000" font-family="sans-serif" font-size="14" lengthAdjust="spacing" textLength="53.7578" x="170.2868" y="357.9267">Dolphin</text><line style="stroke:#181818;stroke-width:0.5;" x1="18.86" x2="342.9713" y1="369.08" y2="369.08"/><rect fill="none" height="6" style="stroke:#C82930;stroke-width:1.0;" width="6" x="25.86" y="379.7284"/><text fill="#000000" font-family="sans-serif" font-size="14" lengthAdjust="spacing" textLength="85.374" x="37.86" y="386.0751">is_wild: bool</text><line style="stroke:#181818;stroke-width:0.5;" x1="18.86" x2="342.9713" y1="393.3769" y2="393.3769"/><ellipse cx="28.86" cy="407.0253" fill="#84BE84" rx="3" ry="3" style="stroke:#038048;stroke-width:1.0;"/><text fill="#000000" font-family="sans-serif" font-size="14" lengthAdjust="spacing" textLength="300.1113" x="37.86" y="410.372">__init__(name: str, breed: str, is_wild: bool)</text><ellipse cx="28.86" cy="423.3222" fill="#84BE84" rx="3" ry="3" style="stroke:#038048;stroke-width:1.0;"/><text fill="#000000" font-family="sans-serif" font-size="14" lengthAdjust="spacing" textLength="52.4043" x="37.86" y="426.6689">speak()</text><ellipse cx="28.86" cy="439.6191" fill="#84BE84" rx="3" ry="3" style="stroke:#038048;stroke-width:1.0;"/><text fill="#000000" font-family="sans-serif" font-size="14" lengthAdjust="spacing" textLength="93.8916" x="37.86" y="442.9657">display_info()</text></g><!--class Vehicle--><g id="elem_Vehicle"><rect codeLine="35" fill="#F1F1F1" height="96.8906" id="Vehicle" rx="2.5" ry="2.5" style="stroke:#181818;stroke-width:0.5;" width="155.7529" x="531.04" y="7"/><ellipse cx="579.0898" cy="23" fill="#ADD1B2" rx="11" ry="11" style="stroke:#181818;stroke-width:1.0;"/><path d="M582.0586,28.6406 Q581.4804,28.9375 580.8398,29.0781 Q580.1992,29.2344 579.4961,29.2344 Q576.9961,29.2344 575.6679,27.5938 Q574.3554,25.9375 574.3554,22.8125 Q574.3554,19.6875 575.6679,18.0313 Q576.9961,16.375 579.4961,16.375 Q580.1992,16.375 580.8398,16.5313 Q581.4961,16.6875 582.0586,16.9844 L582.0586,19.7031 Q581.4336,19.125 580.8398,18.8594 Q580.2461,18.5781 579.6211,18.5781 Q578.2773,18.5781 577.5898,19.6563 Q576.9023,20.7188 576.9023,22.8125 Q576.9023,24.9063 577.5898,25.9844 Q578.2773,27.0469 579.6211,27.0469 Q580.2461,27.0469 580.8398,26.7813 Q581.4336,26.5 582.0586,25.9219 L582.0586,28.6406 Z " fill="#000000"/><text fill="#000000" font-family="sans-serif" font-size="14" lengthAdjust="spacing" textLength="51.1533" x="599.5898" y="27.8467">Vehicle</text><line style="stroke:#181818;stroke-width:0.5;" x1="532.04" x2="685.7929" y1="39" y2="39"/><rect fill="none" height="6" style="stroke:#C82930;stroke-width:1.0;" width="6" x="539.04" y="49.6484"/><text fill="#000000" font-family="sans-serif" font-size="14" lengthAdjust="spacing" textLength="68.6875" x="551.04" y="55.9951">brand: str</text><line style="stroke:#181818;stroke-width:0.5;" x1="532.04" x2="685.7929" y1="63.2969" y2="63.2969"/><ellipse cx="542.04" cy="76.9453" fill="#84BE84" rx="3" ry="3" style="stroke:#038048;stroke-width:1.0;"/><text fill="#000000" font-family="sans-serif" font-size="14" lengthAdjust="spacing" textLength="129.7529" x="551.04" y="80.292">__init__(brand: str)</text><ellipse cx="542.04" cy="93.2422" fill="#84BE84" rx="3" ry="3" style="stroke:#038048;stroke-width:1.0;"/><text fill="#000000" font-family="sans-serif" font-size="14" lengthAdjust="spacing" textLength="60.6348" x="551.04" y="96.5889">display()</text></g><!--class Car--><g id="elem_Car"><rect codeLine="42" fill="#F1F1F1" height="96.8906" id="Car" rx="2.5" ry="2.5" style="stroke:#181818;stroke-width:0.5;" width="235.9521" x="490.94" y="172.04"/><ellipse cx="592.6109" cy="188.04" fill="#ADD1B2" rx="11" ry="11" style="stroke:#181818;stroke-width:1.0;"/><path d="M595.5796,193.6806 Q595.0015,193.9775 594.3609,194.1181 Q593.7203,194.2744 593.0171,194.2744 Q590.5171,194.2744 589.189,192.6337 Q587.8765,190.9775 587.8765,187.8525 Q587.8765,184.7275 589.189,183.0712 Q590.5171,181.415 593.0171,181.415 Q593.7203,181.415 594.3609,181.5712 Q595.0171,181.7275 595.5796,182.0244 L595.5796,184.7431 Q594.9546,184.165 594.3609,183.8994 Q593.7671,183.6181 593.1421,183.6181 Q591.7984,183.6181 591.1109,184.6962 Q590.4234,185.7587 590.4234,187.8525 Q590.4234,189.9462 591.1109,191.0244 Q591.7984,192.0869 593.1421,192.0869 Q593.7671,192.0869 594.3609,191.8212 Q594.9546,191.54 595.5796,190.9619 L595.5796,193.6806 Z " fill="#000000"/><text fill="#000000" font-family="sans-serif" font-size="14" lengthAdjust="spacing" textLength="24.1104" x="613.1109" y="192.8867">Car</text><line style="stroke:#181818;stroke-width:0.5;" x1="491.94" x2="725.8921" y1="204.04" y2="204.04"/><rect fill="none" height="6" style="stroke:#C82930;stroke-width:1.0;" width="6" x="498.94" y="214.6884"/><text fill="#000000" font-family="sans-serif" font-size="14" lengthAdjust="spacing" textLength="71.2988" x="510.94" y="221.0351">model: str</text><line style="stroke:#181818;stroke-width:0.5;" x1="491.94" x2="725.8921" y1="228.3369" y2="228.3369"/><ellipse cx="501.94" cy="241.9853" fill="#84BE84" rx="3" ry="3" style="stroke:#038048;stroke-width:1.0;"/><text fill="#000000" font-family="sans-serif" font-size="14" lengthAdjust="spacing" textLength="209.9521" x="510.94" y="245.332">__init__(brand: str, model: str)</text><ellipse cx="501.94" cy="258.2822" fill="#84BE84" rx="3" ry="3" style="stroke:#038048;stroke-width:1.0;"/><text fill="#000000" font-family="sans-serif" font-size="14" lengthAdjust="spacing" textLength="60.6348" x="510.94" y="261.6289">display()</text></g><!--class SportsCar--><g id="elem_SportsCar"><rect codeLine="51" fill="#F1F1F1" height="96.8906" id="SportsCar" rx="2.5" ry="2.5" style="stroke:#181818;stroke-width:0.5;" width="344.5068" x="436.67" y="345.23"/><ellipse cx="570.1793" cy="361.23" fill="#ADD1B2" rx="11" ry="11" style="stroke:#181818;stroke-width:1.0;"/><path d="M573.148,366.8706 Q572.5699,367.1675 571.9293,367.3081 Q571.2887,367.4644 570.5855,367.4644 Q568.0855,367.4644 566.7574,365.8237 Q565.4449,364.1675 565.4449,361.0425 Q565.4449,357.9175 566.7574,356.2612 Q568.0855,354.605 570.5855,354.605 Q571.2887,354.605 571.9293,354.7612 Q572.5855,354.9175 573.148,355.2144 L573.148,357.9331 Q572.523,357.355 571.9293,357.0894 Q571.3355,356.8081 570.7105,356.8081 Q569.3668,356.8081 568.6793,357.8862 Q567.9918,358.9487 567.9918,361.0425 Q567.9918,363.1362 568.6793,364.2144 Q569.3668,365.2769 570.7105,365.2769 Q571.3355,365.2769 571.9293,365.0112 Q572.523,364.73 573.148,364.1519 L573.148,366.8706 Z " fill="#000000"/><text fill="#000000" font-family="sans-serif" font-size="14" lengthAdjust="spacing" textLength="68.9883" x="590.6793" y="366.0767">SportsCar</text><line style="stroke:#181818;stroke-width:0.5;" x1="437.67" x2="780.1768" y1="377.23" y2="377.23"/><rect fill="none" height="6" style="stroke:#C82930;stroke-width:1.0;" width="6" x="444.67" y="387.8784"/><text fill="#000000" font-family="sans-serif" font-size="14" lengthAdjust="spacing" textLength="99.6543" x="456.67" y="394.2251">top_speed: int</text><line style="stroke:#181818;stroke-width:0.5;" x1="437.67" x2="780.1768" y1="401.5269" y2="401.5269"/><ellipse cx="447.67" cy="415.1753" fill="#84BE84" rx="3" ry="3" style="stroke:#038048;stroke-width:1.0;"/><text fill="#000000" font-family="sans-serif" font-size="14" lengthAdjust="spacing" textLength="318.5068" x="456.67" y="418.522">__init__(brand: str, model: str, top_speed: int)</text><ellipse cx="447.67" cy="431.4722" fill="#84BE84" rx="3" ry="3" style="stroke:#038048;stroke-width:1.0;"/><text fill="#000000" font-family="sans-serif" font-size="14" lengthAdjust="spacing" textLength="60.6348" x="456.67" y="434.8189">display()</text></g><!--reverse link Animal to Dog--><g id="link_Animal_Dog"><path codeLine="16" d="M122.92,122.05 C122.92,140.66 122.92,144.14 122.92,163.49 " fill="none" id="Animal-backto-Dog" style="stroke:#181818;stroke-width:1.0;"/><polygon fill="none" points="122.92,104.05,116.92,122.05,128.92,122.05,122.92,104.05" style="stroke:#181818;stroke-width:1.0;"/></g><!--reverse link Dog to Dolphin--><g id="link_Dog_Dolphin"><path codeLine="31" d="M147.6827,294.5892 C154.1227,313.6092 155.55,317.79 161.98,336.79 " fill="none" id="Dog-backto-Dolphin" style="stroke:#181818;stroke-width:1.0;"/><polygon fill="none" points="141.91,277.54,141.9996,296.5135,153.3658,292.665,141.91,277.54" style="stroke:#181818;stroke-width:1.0;"/></g><!--reverse link Swimmer to Dolphin--><g id="link_Swimmer_Dolphin"><path codeLine="32" d="M285.3787,266.7446 C265.9287,290.1946 250.31,309.02 227.2,336.89 " fill="none" id="Swimmer-backto-Dolphin" style="stroke:#181818;stroke-width:1.0;"/><polygon fill="none" points="296.87,252.89,280.7605,262.9141,289.9969,270.575,296.87,252.89" style="stroke:#181818;stroke-width:1.0;"/></g><!--reverse link Vehicle to Car--><g id="link_Vehicle_Car"><path codeLine="48" d="M608.92,122.05 C608.92,143.29 608.92,150.27 608.92,171.55 " fill="none" id="Vehicle-backto-Car" style="stroke:#181818;stroke-width:1.0;"/><polygon fill="none" points="608.92,104.05,602.92,122.05,614.92,122.05,608.92,104.05" style="stroke:#181818;stroke-width:1.0;"/></g><!--reverse link Car to SportsCar--><g id="link_Car_SportsCar"><path codeLine="57" d="M608.92,287.17 C608.92,310.82 608.92,321.3 608.92,344.95 " fill="none" id="Car-backto-SportsCar" style="stroke:#181818;stroke-width:1.0;"/><polygon fill="none" points="608.92,269.17,602.92,287.17,614.92,287.17,608.92,269.17" style="stroke:#181818;stroke-width:1.0;"/></g><!--SRC=[ZPBFJeGm4CRlVOhU5YAyWF5YvEB1qoPx9OKEoyJ-8MrrOzHtjmMAK56NsxGp_NxVDnne1Hqge0spG5l1hANt2YKJP5tGTqBzLrB59DnIwynOtz2wHeMkhhFb8fzlx03iESl99o67ACB1u2lmMQVIPuggzsSErPbsHikjTcY8meq1u7yh5wkcb6AgEDf1i3S_sUa9RRPtzr6MGMx5kWhaU44fmP1DDPDv2LydFYijXXxLF9vw3BQOuij3sTEBS3W8e8zJ9rCjv4i6qrCn1xJr1OKtsMWjhegYsCvScqoWd6CP2KZ4tHpkvdM27bi1P5EjDkdDxsxo-oR1Ik95vS18uCXSb7nWvaVEMupG4H6avY3-GIXMNRiuqTUOXt_zr__yE6ZZx1vXc4fx8gFJG-rt59Re_Lx7MIHJkzn1P6HUDBy0]--></g></svg>